<svg width="20" height="18" viewBox="0 0 20 18" fill="none" xmlns="http://www.w3.org/2000/svg">
<path d="M15.8355 13.0954C14.4604 13.0954 13.3418 14.1955 13.3418 15.5477C13.3418 16.8999 14.4605 18 15.8355 18C17.2106 18 18.3293 16.8999 18.3293 15.5477C18.3293 14.1955 17.2106 13.0954 15.8355 13.0954ZM15.8355 16.5286C15.2854 16.5286 14.838 16.0887 14.838 15.5477C14.838 15.0067 15.2854 14.5668 15.8355 14.5668C16.3856 14.5668 16.833 15.0067 16.833 15.5477C16.833 16.0887 16.3856 16.5286 15.8355 16.5286Z" fill="#FF671F"/>
<path d="M19.841 3.61739C19.6994 3.43911 19.4821 3.33512 19.252 3.33512H4.618L3.94467 0.564753C3.86413 0.233707 3.56311 3.35983e-09 3.21697 3.35983e-09H0.74813C0.334924 -3.841e-05 0 0.329318 0 0.735654C0 1.14199 0.334924 1.47135 0.74813 1.47135H2.62646L5.05788 11.4758C5.13843 11.8072 5.43945 12.0406 5.78558 12.0406H17.4316C17.7755 12.0406 18.0752 11.8101 18.1577 11.4819L19.9782 4.2476C20.0333 4.02791 19.9827 3.79566 19.841 3.61739ZM16.8462 10.5692H6.37609L4.97558 4.80651H18.2961L16.8462 10.5692Z" fill="#FF671F"/>
<path d="M6.78309 13.0954C5.408 13.0954 4.28932 14.1955 4.28932 15.5477C4.28932 16.8999 5.40804 18 6.78309 18C8.15814 18 9.27685 16.8999 9.27685 15.5477C9.27685 14.1955 8.15814 13.0954 6.78309 13.0954ZM6.78309 16.5286C6.23297 16.5286 5.78558 16.0887 5.78558 15.5477C5.78558 15.0067 6.23297 14.5668 6.78309 14.5668C7.33321 14.5668 7.78059 15.0067 7.78059 15.5477C7.78059 16.0887 7.33321 16.5286 6.78309 16.5286Z" fill="#FF671F"/>
</svg>
