
<svg width="26" height="24" viewBox="0 0 26 24" fill="none" xmlns="http://www.w3.org/2000/svg">
<path d="M20.5862 17.4605C18.7986 17.4605 17.3443 18.9273 17.3443 20.7303C17.3443 22.5332 18.7986 24 20.5862 24C22.3737 24 23.8281 22.5332 23.8281 20.7303C23.8281 18.9273 22.3737 17.4605 20.5862 17.4605ZM20.5862 22.0382C19.871 22.0382 19.2894 21.4516 19.2894 20.7303C19.2894 20.009 19.871 19.4224 20.5862 19.4224C21.3013 19.4224 21.8829 20.009 21.8829 20.7303C21.8829 21.4516 21.3013 22.0382 20.5862 22.0382Z" fill="black"/>
<path d="M25.7933 4.82318C25.6092 4.58548 25.3268 4.44683 25.0276 4.44683H6.0034L5.12807 0.753004C5.02336 0.311609 4.63204 4.47978e-09 4.18206 4.47978e-09H0.972569C0.435401 -5.12133e-05 0 0.43909 0 0.980872C0 1.52265 0.435401 1.9618 0.972569 1.9618H3.4144L6.57525 15.3011C6.67996 15.7429 7.07128 16.0541 7.52126 16.0541H22.661C23.1081 16.0541 23.4977 15.7468 23.605 15.3093L25.9717 5.66346C26.0433 5.37055 25.9775 5.06088 25.7933 4.82318ZM21.9001 14.0923H8.28892L6.46825 6.40868H23.7849L21.9001 14.0923Z" fill="black"/>
<path d="M8.81802 17.4605C7.0304 17.4605 5.57612 18.9273 5.57612 20.7303C5.57612 22.5332 7.03045 24 8.81802 24C10.6056 24 12.0599 22.5332 12.0599 20.7303C12.0599 18.9273 10.6056 17.4605 8.81802 17.4605ZM8.81802 22.0382C8.10286 22.0382 7.52126 21.4516 7.52126 20.7303C7.52126 20.009 8.10286 19.4224 8.81802 19.4224C9.53317 19.4224 10.1148 20.009 10.1148 20.7303C10.1148 21.4516 9.53317 22.0382 8.81802 22.0382Z" fill="black"/>
</svg>
