<svg width="24" height="31" viewBox="0 0 24 31" fill="none" xmlns="http://www.w3.org/2000/svg">
<path d="M12.6412 30.9414C11.4712 30.9458 10.3097 30.7436 9.21004 30.3442C5.26791 28.8992 2.6382 26.6235 1.39473 23.581C-0.646174 18.5859 1.7771 13.3804 1.88098 13.1616C1.91961 13.0802 1.9822 13.0125 2.06037 12.9677C2.13854 12.9228 2.22855 12.9029 2.31834 12.9107C2.40812 12.9184 2.4934 12.9534 2.56273 13.011C2.63207 13.0685 2.68215 13.1459 2.70627 13.2328C3.06168 14.243 3.68879 15.1356 4.51865 15.8125C5.53048 10.7343 9.96018 7.66127 10.1569 7.52644C13.0151 5.23843 10.6807 0.692471 10.6568 0.646941C10.6097 0.556859 10.5951 0.453287 10.6154 0.353676C10.6357 0.254065 10.6898 0.164504 10.7684 0.100081C10.8471 0.0356593 10.9455 0.000314386 11.0472 2.08737e-06C11.1488 -0.000310211 11.2475 0.0344292 11.3265 0.0983669C19.198 6.48588 18.7453 12.9194 18.1101 15.5628C18.7014 15.0999 19.1607 14.4898 19.4422 13.7937C19.7236 13.0975 19.8173 12.3396 19.7138 11.5959C19.7 11.497 19.72 11.3963 19.7707 11.3103C19.8213 11.2242 19.8996 11.1579 19.9928 11.122C20.0859 11.0861 20.1885 11.0829 20.2838 11.1127C20.3791 11.1426 20.4614 11.2038 20.5175 11.2865C21.3717 12.6178 22.0653 14.0457 22.5836 15.5402C23.2672 17.4977 23.4355 19.5982 23.0723 21.6396C22.709 23.681 21.8265 25.5945 20.5095 27.196L20.4149 27.3114C19.4681 28.4535 18.2798 29.3714 16.9356 29.9991C15.5914 30.6268 14.1247 30.9486 12.6412 30.9414ZM9.51416 29.5141C10.5164 29.8778 11.575 30.0617 12.6412 30.0573C13.994 30.0641 15.3316 29.7709 16.5576 29.1988C17.7836 28.6268 18.8676 27.7902 19.7315 26.7491L19.8199 26.6386C21.0414 25.1542 21.8603 23.3804 22.1978 21.488C22.5354 19.5955 22.3802 17.648 21.7472 15.8329C21.4189 14.8987 21.0217 13.9902 20.559 13.1147C20.0728 15.7745 17.5279 17.0113 17.497 17.0259C17.4146 17.0649 17.3222 17.0775 17.2325 17.0619C17.1427 17.0464 17.0599 17.0035 16.9954 16.9391C16.931 16.8747 16.888 16.7919 16.8724 16.7021C16.8568 16.6124 16.8693 16.52 16.9082 16.4376C17.0479 16.1379 20.0909 9.32069 12.0811 1.92046C12.5921 3.69173 12.8976 6.462 10.6794 8.23636C10.6056 8.28852 5.91108 11.5543 5.27012 16.6794C5.26052 16.7543 5.23186 16.8256 5.18688 16.8863C5.1419 16.947 5.08211 16.9952 5.01321 17.0262C4.94431 17.0573 4.8686 17.0701 4.79332 17.0636C4.71803 17.057 4.64568 17.0313 4.58318 16.9888C3.65924 16.3336 2.88097 15.4943 2.29738 14.5235C1.71698 16.2214 0.820522 19.8462 2.21516 23.2499C3.36182 26.0502 5.81737 28.1565 9.51372 29.5118L9.51416 29.5141Z" fill="black"/>
<path d="M10.7576 30.7611C10.6535 30.761 10.5526 30.7243 10.473 30.6572C4.84001 25.9088 8.80867 19.8364 8.84933 19.7759C8.90077 19.699 8.97498 19.6403 9.06155 19.6079C9.14811 19.5754 9.24267 19.5709 9.33191 19.595C9.42115 19.6191 9.50059 19.6706 9.55906 19.7422C9.61752 19.8138 9.65207 19.902 9.65783 19.9942C9.66899 20.6725 9.91239 21.3264 10.3474 21.8468C10.1181 20.1795 10.3618 18.4813 11.0508 16.9457C11.7397 15.4101 12.8462 14.0989 14.244 13.1616C14.3267 13.1135 14.4227 13.0935 14.5176 13.1046C14.6126 13.1157 14.7014 13.1573 14.7707 13.2231C14.84 13.289 14.8861 13.3755 14.9021 13.4698C14.9181 13.5641 14.9031 13.661 14.8593 13.746C14.6155 14.2064 14.4929 14.7214 14.5031 15.2423C14.5259 15.8484 14.7183 16.436 15.0583 16.9384L15.2351 17.2085C15.8208 18.078 16.4554 18.9137 17.1359 19.7113C17.6654 20.352 18.0891 21.0732 18.3908 21.8477C20.6063 26.4153 16.7995 30.0158 16.7623 30.052C16.676 30.1293 16.5628 30.1696 16.447 30.1643C16.3312 30.1589 16.2222 30.1083 16.1434 30.0233C16.0646 29.9384 16.0223 29.8259 16.0256 29.71C16.0289 29.5942 16.0776 29.4843 16.1612 29.404C16.2995 29.2749 19.5317 26.1948 17.5859 22.2142C17.5782 22.1985 17.5716 22.1824 17.566 22.166C17.2981 21.4813 16.9233 20.8435 16.4556 20.2763C15.7533 19.4529 15.0985 18.5903 14.4942 17.6925L14.3174 17.4224C13.8868 16.7815 13.6445 16.0326 13.6181 15.2608C13.6146 15.0886 13.6222 14.9163 13.6411 14.745C12.368 15.9487 10.5026 18.5112 11.3822 22.7017C11.3981 22.7769 11.394 22.8549 11.3706 22.928C11.3471 23.0011 11.305 23.0668 11.2483 23.1187C11.1917 23.1706 11.1226 23.2069 11.0477 23.2239C10.9728 23.2409 10.8948 23.2381 10.8213 23.2158C10.3994 23.0544 10.0192 22.8003 9.70855 22.4723C9.39794 22.1443 9.16489 21.7508 9.02659 21.3208C8.24241 23.1066 7.30263 26.8291 11.0419 29.9822C11.1112 30.0406 11.161 30.1189 11.1843 30.2065C11.2077 30.2942 11.2035 30.3869 11.1724 30.4721C11.1412 30.5572 11.0847 30.6308 11.0103 30.6827C10.936 30.7347 10.8474 30.7625 10.7567 30.7624L10.7576 30.7611Z" fill="black"/>
</svg>
