<svg width="23" height="23" viewBox="0 0 23 23" fill="none" xmlns="http://www.w3.org/2000/svg">
<path d="M5.14337 7.1875H0V23H5.14337V7.1875Z" fill="white"/>
<path d="M19.1532 7.37294C19.0986 7.35569 19.0469 7.337 18.9894 7.32119C18.9204 7.30538 18.8514 7.29244 18.7809 7.28094C18.5078 7.22631 18.2088 7.1875 17.8581 7.1875C14.8594 7.1875 12.9576 9.36819 12.3309 10.2106V7.1875H7.1875V23H12.3309V14.375C12.3309 14.375 16.2179 8.96138 17.8581 12.9375C17.8581 16.4867 17.8581 23 17.8581 23H23V12.3294C23 9.94031 21.3627 7.94938 19.1532 7.37294Z" fill="white"/>
<path d="M2.51562 5.03125C3.90497 5.03125 5.03125 3.90497 5.03125 2.51562C5.03125 1.12628 3.90497 0 2.51562 0C1.12628 0 0 1.12628 0 2.51562C0 3.90497 1.12628 5.03125 2.51562 5.03125Z" fill="white"/>
</svg>
