<svg width="102" height="30" viewBox="0 0 102 30" fill="none" xmlns="http://www.w3.org/2000/svg">
<path d="M37.6198 11.5077H31.5244V5.70947H37.6198V11.5077Z" fill="#FF671F"/>
<path d="M31.5268 29.0237H37.6175V11.5078H31.5331" fill="white"/>
<path d="M67.8348 17.0191C67.5502 16.4959 67.2054 16.0124 66.8146 15.5749L65.8674 14.5413C65.8476 14.5214 65.8476 14.4881 65.8674 14.4747L66.7885 13.468C67.1864 13.0376 67.5304 12.5604 67.8086 12.0373C68.0932 11.5141 68.3119 10.964 68.4713 10.4013C68.6235 9.83768 68.7035 9.28838 68.7035 8.74462C68.7035 7.55169 68.4586 6.42613 67.9814 5.37904C67.4979 4.32561 66.8416 3.41169 66.0204 2.62301C65.1921 1.83432 64.2251 1.21209 63.1185 0.754735C62.0191 0.297378 60.8325 0.0722656 59.5738 0.0722656H41.7123V29.0039H59.5738C60.8325 29.0039 62.0183 28.7788 63.1185 28.3214C64.2251 27.8641 65.1921 27.2418 66.0204 26.4532C66.8416 25.6645 67.4979 24.7506 67.9814 23.6971C68.4586 22.65 68.7035 21.5245 68.7035 20.3315C68.7035 19.7886 68.6306 19.2385 68.4784 18.6622C68.3318 18.0923 68.1138 17.5422 67.8348 17.0191ZM62.3758 21.4579C62.2236 21.809 62.0049 22.1134 61.733 22.379C61.4548 22.6374 61.1298 22.8427 60.7659 22.9948C60.395 23.1407 59.9971 23.2136 59.5738 23.2136H47.8006V17.4431H59.5738C59.9979 17.4431 60.395 17.5161 60.7659 17.6619C61.1306 17.8141 61.4548 18.0194 61.733 18.2778C62.0049 18.5425 62.2236 18.8477 62.3758 19.1989C62.5351 19.55 62.6081 19.9273 62.6081 20.3315C62.6081 20.7287 62.5351 21.1068 62.3758 21.4579ZM62.3758 9.88366C62.2236 10.2411 62.0049 10.5527 61.733 10.8174C61.4548 11.0758 61.1298 11.2811 60.7659 11.4269C60.395 11.5791 59.9971 11.6521 59.5738 11.6521H47.8006V5.86176H59.5738C59.9979 5.86176 60.395 5.93469 60.7659 6.08053C61.1306 6.23272 61.4548 6.43802 61.733 6.69642C62.0049 6.96117 62.2236 7.26633 62.3758 7.61748C62.5351 7.96862 62.6081 8.33958 62.6081 8.74383C62.6081 9.14808 62.5351 9.53251 62.3758 9.88366Z" fill="white"/>
<path d="M99.4939 25.3871H99.4876L89.7951 2.92112L88.5894 0.0327148H81.6728L81.3018 0.847556L81.2884 0.867373L81.0363 1.41034L79.9298 3.82157L69.6079 26.672L69.4486 27.0168L68.5347 29.0111L75.2325 29.0175H75.3253L76.0672 27.0699L76.087 27.0168L77.5709 23.2668H91.9542L92.968 25.7644L93.2661 26.5198L94.2466 28.9778L100.952 29.0175H101.078L99.4939 25.3871ZM84.6008 5.86898H85.1834L89.7348 17.4567H79.8965L84.6008 5.86898Z" fill="white"/>
<path d="M10.5446 0C9.09008 0 7.72514 0.229075 6.44977 0.687225C5.1752 1.14538 4.05915 1.7676 3.10321 2.55629C2.14728 3.34418 1.3903 4.26286 0.835451 5.3147C0.278219 6.36496 0 7.48973 0 8.68821C0 9.88669 0.278219 11.0146 0.833865 12.072C1.38951 13.1294 2.1457 14.0513 3.10163 14.8399C4.05756 15.6278 5.17361 16.2517 6.44819 16.7082C7.72356 17.1664 9.0885 17.3954 10.543 17.3954H17.5809C18.0716 17.3954 18.5289 17.47 18.9546 17.6174C19.3794 17.7664 19.7512 17.9709 20.0698 18.2341C20.3893 18.4964 20.6382 18.8032 20.8181 19.1535C20.9972 19.5039 21.0876 19.8804 21.0876 20.2846C21.0876 20.6889 20.9972 21.0654 20.8181 21.4158C20.6382 21.7661 20.3893 22.0721 20.0698 22.3344C19.7512 22.5976 19.3794 22.8029 18.9546 22.9511C18.5289 23.0993 18.0716 23.1731 17.5809 23.1731H1.9626V28.9721H17.5825C19.037 28.9721 20.4059 28.743 21.69 28.2848C22.9733 27.8275 24.0933 27.2045 25.0492 26.4158C26.006 25.6279 26.7574 24.7092 27.3051 23.6582C27.8528 22.6071 28.1263 21.4831 28.1263 20.2839C28.1263 19.0854 27.8528 17.9574 27.3051 16.8992C26.7574 15.8419 26.006 14.92 25.0492 14.1313C24.0933 13.3434 22.9733 12.7236 21.69 12.2734C20.4067 11.8215 19.0378 11.5964 17.5825 11.5964H10.5446C10.0539 11.5964 9.59659 11.5227 9.17173 11.3745C8.74607 11.2263 8.37432 11.021 8.05568 10.7578C7.73703 10.4954 7.48735 10.1855 7.30821 9.82883C7.12828 9.47214 7.03871 9.09167 7.03871 8.68742C7.03871 8.28317 7.12828 7.90666 7.30821 7.55631C7.48735 7.20596 7.73703 6.89921 8.05568 6.63684C8.37432 6.37368 8.74607 6.16918 9.17173 6.02016C9.59659 5.87193 10.0539 5.79822 10.5446 5.79822L37.6373 5.74115V0H10.5446Z" fill="white"/>
</svg>
