<svg width="94" height="21" viewBox="0 0 94 21" fill="none" xmlns="http://www.w3.org/2000/svg">
<path d="M25.6251 7.83855H21.4731V3.88904H25.6251V7.83855Z" fill="#FF671F"/>
<path d="M72.9955 14.2765C73.3178 14.3894 73.5003 14.6361 73.5003 14.953C73.5003 15.4849 73.0975 15.8445 72.4961 15.8445H70.9497C70.9011 15.8445 70.8747 15.8175 70.8747 15.7694V12.9931C70.8747 12.9445 70.9017 12.9181 70.9497 12.9181H72.3838C72.9318 12.9181 73.3076 13.2674 73.3076 13.7183C73.3076 13.9493 73.1947 14.1372 72.996 14.2393V14.2765H72.9955ZM71.4918 14.0562H72.3886C72.5603 14.0562 72.6894 13.9434 72.6894 13.7771C72.6894 13.6054 72.5765 13.498 72.3886 13.498H71.4918V14.0562ZM71.4918 15.2592H72.4799C72.7325 15.2592 72.8772 15.1355 72.8772 14.9476C72.8772 14.7382 72.7428 14.6361 72.4799 14.6361H71.4918V15.2592Z" fill="black"/>
<path d="M76.6739 13.5666C76.6955 13.6044 76.6901 13.6308 76.6632 13.6524L76.3246 13.91C76.2868 13.9478 76.2442 13.9262 76.2226 13.8992C76.0023 13.5984 75.7609 13.464 75.3954 13.464C74.8582 13.464 74.504 13.8398 74.504 14.3716C74.504 14.9034 74.8636 15.2954 75.3954 15.2954C75.7604 15.2954 76.0185 15.1664 76.2388 14.844C76.2658 14.817 76.2922 14.817 76.3246 14.844L76.6632 15.1124C76.6901 15.1394 76.6955 15.1712 76.6739 15.1982C76.4002 15.649 75.9326 15.8855 75.396 15.8855C74.5369 15.8855 73.8815 15.2355 73.8815 14.371C73.8815 13.5066 74.5369 12.8728 75.396 12.8728C75.9002 12.8739 76.4159 13.126 76.6739 13.5666Z" fill="black"/>
<path d="M79.4556 12.9165C79.5042 12.9165 79.5307 12.9435 79.5307 12.9916V13.4213C79.5307 13.4694 79.5037 13.4964 79.4556 13.4964H77.8283V14.0444H79.2569C79.305 14.0444 79.332 14.0714 79.332 14.1194V14.5492C79.332 14.5978 79.305 14.6243 79.2569 14.6243H77.8283V15.2581H79.4983C79.5469 15.2581 79.5733 15.2851 79.5733 15.3332V15.7684C79.5733 15.817 79.5463 15.8434 79.4983 15.8434H77.2803C77.2317 15.8434 77.2052 15.8164 77.2052 15.7684V12.9921C77.2052 12.9489 77.243 12.917 77.2803 12.917H79.4556V12.9165Z" fill="black"/>
<path d="M84.6961 12.9165C84.7447 12.9165 84.7711 12.9435 84.7711 12.9916V15.2522H85.0184C85.0665 15.2522 85.0935 15.29 85.0935 15.3272V16.3585C85.0935 16.4065 85.0665 16.4335 85.0184 16.4335H84.5832C84.5352 16.4335 84.5082 16.4065 84.5082 16.3585L84.4812 15.8429H82.5159L82.4835 16.3531C82.4835 16.4071 82.4565 16.4335 82.4084 16.4335H81.9787C81.9306 16.4335 81.9036 16.4065 81.9036 16.3585V15.3272C81.9036 15.2792 81.9306 15.2522 81.9787 15.2522H82.1504C82.2632 15.2522 82.3221 15.1879 82.3382 15.0643L82.612 12.9916C82.6174 12.943 82.6498 12.9165 82.687 12.9165H84.6961ZM83.1762 13.5077L82.9667 15.108C82.9613 15.162 82.9505 15.2101 82.9235 15.2533H84.1481V13.5077H83.1762Z" fill="black"/>
<path d="M88.0144 15.8434C87.9664 15.8434 87.9394 15.8164 87.9394 15.7684V13.5023H86.994L86.7737 15.1723C86.7148 15.6021 86.4567 15.8758 86.0216 15.8758C85.7208 15.8758 85.5329 15.7845 85.3823 15.6183C85.3553 15.5859 85.3607 15.554 85.3877 15.5162L85.6134 15.2101C85.6404 15.1777 85.6722 15.1777 85.71 15.2047C85.7797 15.2689 85.8499 15.2905 85.9514 15.2905C86.075 15.2905 86.1447 15.2155 86.1609 15.1026L86.4778 12.9813C86.4832 12.9386 86.5102 12.917 86.5474 12.917H88.4863C88.5349 12.917 88.5614 12.944 88.5614 12.9921V15.7684C88.5614 15.8169 88.5344 15.8434 88.4863 15.8434H88.0144Z" fill="black"/>
<path d="M89.7276 14.8877C89.3998 14.6999 89.1796 14.4153 89.1796 13.9855C89.1796 13.3841 89.679 12.917 90.3236 12.917H91.6502C91.6988 12.917 91.7253 12.944 91.7253 12.9921V15.7684C91.7253 15.8169 91.6983 15.8434 91.6502 15.8434H91.1778C91.1297 15.8434 91.1027 15.8164 91.1027 15.7684V15.0594H90.2972L89.8566 15.7845C89.835 15.8223 89.7924 15.8434 89.733 15.8434H89.2228C89.1585 15.8434 89.1477 15.7894 89.1742 15.7468L89.7276 14.8877ZM90.3074 13.5077C89.9797 13.5077 89.7972 13.7118 89.7972 13.9855C89.7972 14.2593 89.9851 14.4742 90.3074 14.4742H91.1022V13.5077H90.3074Z" fill="black"/>
<path d="M72.9955 18.2012C73.3178 18.3141 73.5003 18.5608 73.5003 18.8777C73.5003 19.4096 73.0975 19.7692 72.496 19.7692H70.9497C70.9011 19.7692 70.8747 19.7422 70.8747 19.6941V16.9178C70.8747 16.8692 70.9017 16.8428 70.9497 16.8428H72.3837C72.9318 16.8428 73.3075 17.1921 73.3075 17.6429C73.3075 17.874 73.1947 18.0619 72.996 18.164V18.2012H72.9955ZM71.4918 17.9815H72.3886C72.5603 17.9815 72.6893 17.8686 72.6893 17.7023C72.6893 17.5306 72.5765 17.4232 72.3886 17.4232H71.4918V17.9815ZM71.4918 19.1844H72.4798C72.7325 19.1844 72.8772 19.0608 72.8772 18.8729C72.8772 18.6634 72.7428 18.5614 72.4798 18.5614H71.4918V19.1844Z" fill="black"/>
<path d="M76.2922 16.8428C76.3408 16.8428 76.3673 16.8698 76.3673 16.9178V17.3476C76.3673 17.3957 76.3403 17.4227 76.2922 17.4227H74.6649V17.9707H76.0935C76.1416 17.9707 76.1686 17.9977 76.1686 18.0457V18.4755C76.1686 18.5241 76.1416 18.5506 76.0935 18.5506H74.6649V19.1844H76.3349C76.3835 19.1844 76.4099 19.2114 76.4099 19.2595V19.6946C76.4099 19.7432 76.3829 19.7697 76.3349 19.7697H74.1169C74.0683 19.7697 74.0418 19.7427 74.0418 19.6946V16.9184C74.0418 16.8752 74.0796 16.8433 74.1169 16.8433H76.2922V16.8428Z" fill="black"/>
<path d="M77.5545 16.8428C77.6026 16.8428 77.6296 16.8698 77.6296 16.9178V17.9545H78.9616V16.9178C78.9616 16.8692 78.9886 16.8428 79.0366 16.8428H79.509C79.5576 16.8428 79.5841 16.8698 79.5841 16.9178V19.6941C79.5841 19.7427 79.5571 19.7692 79.509 19.7692H79.0366C78.9886 19.7692 78.9616 19.7422 78.9616 19.6941V18.5446H77.6296V19.6941C77.6296 19.7427 77.6026 19.7692 77.5545 19.7692H77.0821C77.0335 19.7692 77.0071 19.7422 77.0071 19.6941V16.9178C77.0071 16.8692 77.0341 16.8428 77.0821 16.8428H77.5545Z" fill="black"/>
<path d="M82.8657 16.8428C82.9143 16.8428 82.9408 16.8698 82.9408 16.9178V19.1785H83.1881C83.2361 19.1785 83.2631 19.2163 83.2631 19.2535V20.2848C83.2631 20.3334 83.2361 20.3598 83.1881 20.3598H82.7529C82.7048 20.3598 82.6779 20.3328 82.6779 20.2848L82.6509 19.7692H80.6856L80.6532 20.2794C80.6532 20.3334 80.6262 20.3598 80.5781 20.3598H80.1483C80.1003 20.3598 80.0733 20.3328 80.0733 20.2848V19.2535C80.0733 19.2049 80.1003 19.1785 80.1483 19.1785H80.32C80.4329 19.1785 80.4917 19.1142 80.5079 18.9906L80.7817 16.9178C80.7871 16.8692 80.8195 16.8428 80.8567 16.8428H82.8657ZM81.3459 17.4335L81.1364 19.0338C81.131 19.0878 81.1202 19.1358 81.0932 19.179H82.3177V17.4335H81.3459Z" fill="black"/>
<path d="M84.2992 16.8428C84.3473 16.8428 84.3743 16.8698 84.3743 16.9178V19.6941C84.3743 19.7427 84.3473 19.7692 84.2992 19.7692H83.8268C83.7782 19.7692 83.7517 19.7422 83.7517 19.6941V16.9178C83.7517 16.8692 83.7787 16.8428 83.8268 16.8428H84.2992Z" fill="black"/>
<path d="M85.5718 16.8428C85.6199 16.8428 85.6469 16.8698 85.6469 16.9178V17.9545H86.9788V16.9178C86.9788 16.8692 87.0058 16.8428 87.0539 16.8428H87.5263C87.5749 16.8428 87.6014 16.8698 87.6014 16.9178V19.6941C87.6014 19.7427 87.5744 19.7692 87.5263 19.7692H87.0539C87.0058 19.7692 86.9788 19.7422 86.9788 19.6941V18.5446H85.6469V19.6941C85.6469 19.7427 85.6199 19.7692 85.5718 19.7692H85.0994C85.0508 19.7692 85.0243 19.7422 85.0243 19.6941V16.9178C85.0243 16.8692 85.0513 16.8428 85.0994 16.8428H85.5718Z" fill="black"/>
<path d="M88.327 19.7697C88.2784 19.7697 88.252 19.7427 88.252 19.6947V16.9184C88.252 16.8698 88.2898 16.8433 88.327 16.8433H90.4322C90.4754 16.8433 90.5072 16.8811 90.5072 16.9184V17.359C90.5072 17.4076 90.4802 17.434 90.4322 17.434H88.875V19.6947C88.875 19.7432 88.848 19.7697 88.8 19.7697H88.327Z" fill="black"/>
<path d="M91.5331 16.8428C91.5655 16.8428 91.5865 16.8536 91.5973 16.8752L92.4941 18.4059H92.5373L93.2997 16.8968C93.3159 16.859 93.3483 16.8428 93.3909 16.8428H93.9389C93.9875 16.8428 94.014 16.8914 93.9924 16.9286L92.4137 19.7211C92.3975 19.7535 92.3651 19.7697 92.3224 19.7697H91.7852C91.7264 19.7697 91.721 19.7319 91.742 19.6892L92.1664 18.9641L90.8992 16.9124C90.8776 16.8746 90.8938 16.8428 90.9316 16.8428H91.5331Z" fill="black"/>
<path d="M21.4747 19.7697H25.6235V7.83855H21.4791" fill="black"/>
<path d="M46.2063 11.5926C46.0125 11.2363 45.7776 10.9069 45.5114 10.6089L44.8662 9.90484C44.8527 9.89134 44.8527 9.86866 44.8662 9.85948L45.4936 9.17379C45.7646 8.88061 45.999 8.55558 46.1885 8.19923C46.3823 7.84289 46.5313 7.46818 46.6399 7.08484C46.7435 6.70095 46.7981 6.32679 46.7981 5.95641C46.7981 5.14383 46.6312 4.37714 46.3062 3.66391C45.9768 2.94636 45.5298 2.32383 44.9704 1.78661C44.4062 1.24939 43.7475 0.825553 42.9938 0.514019C42.2449 0.202486 41.4367 0.0491486 40.5793 0.0491486H28.4127V19.7562H40.5793C41.4367 19.7562 42.2444 19.6029 42.9938 19.2913C43.7475 18.9798 44.4062 18.556 44.9704 18.0187C45.5298 17.4815 45.9768 16.859 46.3062 16.1414C46.6312 15.4282 46.7981 14.6615 46.7981 13.8489C46.7981 13.4791 46.7484 13.1044 46.6447 12.7119C46.5448 12.3237 46.3964 11.949 46.2063 11.5926ZM42.4879 14.6162C42.3842 14.8554 42.2352 15.0627 42.05 15.2436C41.8605 15.4196 41.6391 15.5594 41.3913 15.6631C41.1386 15.7624 40.8676 15.8121 40.5793 15.8121H32.5598V11.8815H40.5793C40.8681 11.8815 41.1386 11.9312 41.3913 12.0305C41.6397 12.1342 41.8605 12.274 42.05 12.45C42.2352 12.6303 42.3842 12.8382 42.4879 13.0774C42.5964 13.3166 42.6461 13.5736 42.6461 13.8489C42.6461 14.1194 42.5964 14.377 42.4879 14.6162ZM42.4879 6.73227C42.3842 6.97577 42.2352 7.18796 42.05 7.3683C41.8605 7.54431 41.6391 7.68415 41.3913 7.78349C41.1386 7.88716 40.8676 7.93683 40.5793 7.93683H32.5598V3.99272H40.5793C40.8681 3.99272 41.1386 4.04239 41.3913 4.14174C41.6397 4.2454 41.8605 4.38524 42.05 4.56125C42.2352 4.74159 42.3842 4.94946 42.4879 5.18864C42.5964 5.42782 42.6461 5.68051 42.6461 5.95587C42.6461 6.23123 42.5964 6.49309 42.4879 6.73227Z" fill="black"/>
<path d="M67.7712 17.2925H67.7669L61.1647 1.98961L60.3435 0.0221405H55.6322L55.3795 0.577178L55.3703 0.590676L55.1986 0.96052L54.4449 2.60295L47.4141 18.1678L47.3056 18.4026L46.683 19.7611L51.2453 19.7654H51.3085L51.8139 18.4388L51.8274 18.4026L52.8381 15.8483H62.6355L63.326 17.5495L63.5291 18.0641L64.1969 19.7384L68.7641 19.7654H68.85L67.7712 17.2925ZM57.6267 3.99757H58.0235L61.1237 11.8906H54.4222L57.6267 3.99757Z" fill="black"/>
<path d="M7.18255 0C6.1918 0 5.26205 0.156037 4.39332 0.46811C3.52513 0.780183 2.76493 1.20402 2.11378 1.74124C1.46264 2.27792 0.947019 2.90369 0.569075 3.62016C0.189512 4.33555 0 5.1017 0 5.91806C0 6.73442 0.189512 7.50272 0.567995 8.22297C0.946479 8.94322 1.46156 9.57115 2.1127 10.1084C2.76385 10.6451 3.52405 11.07 4.39224 11.381C5.26097 11.693 6.19072 11.8491 7.18147 11.8491H11.9754C12.3096 11.8491 12.6212 11.8998 12.9111 12.0002C13.2005 12.1018 13.4537 12.2411 13.6708 12.4203C13.8883 12.599 14.0579 12.808 14.1804 13.0466C14.3025 13.2853 14.364 13.5417 14.364 13.8171C14.364 14.0924 14.3025 14.3489 14.1804 14.5875C14.0579 14.8262 13.8883 15.0346 13.6708 15.2133C13.4537 15.3926 13.2005 15.5324 12.9111 15.6334C12.6212 15.7343 12.3096 15.7845 11.9754 15.7845H1.33684V19.7346H11.9765C12.9672 19.7346 13.8997 19.5786 14.7744 19.2665C15.6485 18.955 16.4114 18.5306 17.0625 17.9934C17.7142 17.4567 18.2261 16.8309 18.5991 16.115C18.9722 15.399 19.1585 14.6334 19.1585 13.8165C19.1585 13.0002 18.9722 12.2319 18.5991 11.5111C18.2261 10.7908 17.7142 10.1629 17.0625 9.62568C16.4114 9.089 15.6485 8.66679 14.7744 8.36011C13.9002 8.05236 12.9678 7.89902 11.9765 7.89902H7.18255C6.84834 7.89902 6.5368 7.84881 6.24741 7.74784C5.95747 7.64688 5.70425 7.50704 5.4872 7.32779C5.27015 7.14907 5.10008 6.93796 4.97806 6.695C4.85549 6.45204 4.79448 6.19288 4.79448 5.91752C4.79448 5.64216 4.85549 5.3857 4.97806 5.14705C5.10008 4.90841 5.27015 4.69946 5.4872 4.52075C5.70425 4.34149 5.95747 4.20219 6.24741 4.10069C6.5368 3.99972 6.84834 3.94951 7.18255 3.94951L25.637 3.91064V0H7.18255Z" fill="black"/>
</svg>
