<svg width="104" height="48" viewBox="0 0 104 48" fill="none" xmlns="http://www.w3.org/2000/svg">
<path d="M3.504 42.192H2.064V45H1.212V38.688H2.064V41.46H3.516L5.736 38.688H6.66L4.176 41.748L6.84 45H5.832L3.504 42.192ZM10.2395 38.64C11.0635 38.64 11.6955 38.848 12.1355 39.264C12.5755 39.672 12.7955 40.28 12.7955 41.088V45H11.9795V44.016C11.7875 44.344 11.5035 44.6 11.1275 44.784C10.7595 44.968 10.3195 45.06 9.80747 45.06C9.10347 45.06 8.54347 44.892 8.12747 44.556C7.71147 44.22 7.50347 43.776 7.50347 43.224C7.50347 42.688 7.69547 42.256 8.07947 41.928C8.47147 41.6 9.09147 41.436 9.93947 41.436H11.9435V41.052C11.9435 40.508 11.7915 40.096 11.4875 39.816C11.1835 39.528 10.7395 39.384 10.1555 39.384C9.75547 39.384 9.37147 39.452 9.00347 39.588C8.63547 39.716 8.31947 39.896 8.05547 40.128L7.67147 39.492C7.99147 39.22 8.37547 39.012 8.82347 38.868C9.27147 38.716 9.74347 38.64 10.2395 38.64ZM9.93947 44.388C10.4195 44.388 10.8315 44.28 11.1755 44.064C11.5195 43.84 11.7755 43.52 11.9435 43.104V42.072H9.96347C8.88347 42.072 8.34347 42.448 8.34347 43.2C8.34347 43.568 8.48347 43.86 8.76347 44.076C9.04347 44.284 9.43547 44.388 9.93947 44.388ZM19.0836 41.736C19.9396 41.936 20.3676 42.452 20.3676 43.284C20.3676 43.836 20.1636 44.26 19.7556 44.556C19.3476 44.852 18.7396 45 17.9316 45H15.0636V38.688H17.8476C18.5676 38.688 19.1316 38.828 19.5396 39.108C19.9476 39.388 20.1516 39.788 20.1516 40.308C20.1516 40.652 20.0556 40.948 19.8636 41.196C19.6796 41.436 19.4196 41.616 19.0836 41.736ZM15.8916 41.496H17.7876C18.2756 41.496 18.6476 41.404 18.9036 41.22C19.1676 41.036 19.2996 40.768 19.2996 40.416C19.2996 40.064 19.1676 39.8 18.9036 39.624C18.6476 39.448 18.2756 39.36 17.7876 39.36H15.8916V41.496ZM17.8956 44.328C18.4396 44.328 18.8476 44.24 19.1196 44.064C19.3916 43.888 19.5276 43.612 19.5276 43.236C19.5276 42.86 19.4036 42.584 19.1556 42.408C18.9076 42.224 18.5156 42.132 17.9796 42.132H15.8916V44.328H17.8956ZM24.5363 38.64C25.3603 38.64 25.9923 38.848 26.4323 39.264C26.8723 39.672 27.0923 40.28 27.0923 41.088V45H26.2763V44.016C26.0843 44.344 25.8003 44.6 25.4243 44.784C25.0563 44.968 24.6163 45.06 24.1043 45.06C23.4003 45.06 22.8403 44.892 22.4243 44.556C22.0083 44.22 21.8003 43.776 21.8003 43.224C21.8003 42.688 21.9923 42.256 22.3763 41.928C22.7683 41.6 23.3883 41.436 24.2363 41.436H26.2403V41.052C26.2403 40.508 26.0883 40.096 25.7843 39.816C25.4803 39.528 25.0363 39.384 24.4523 39.384C24.0523 39.384 23.6683 39.452 23.3003 39.588C22.9323 39.716 22.6163 39.896 22.3523 40.128L21.9683 39.492C22.2883 39.22 22.6723 39.012 23.1203 38.868C23.5683 38.716 24.0403 38.64 24.5363 38.64ZM24.2363 44.388C24.7163 44.388 25.1283 44.28 25.4723 44.064C25.8163 43.84 26.0723 43.52 26.2403 43.104V42.072H24.2603C23.1803 42.072 22.6403 42.448 22.6403 43.2C22.6403 43.568 22.7803 43.86 23.0603 44.076C23.3403 44.284 23.7323 44.388 24.2363 44.388ZM38.6571 44.256V46.524H37.8531V45H32.2011V46.524H31.3971V44.256H31.7571C32.1811 44.232 32.4691 43.92 32.6211 43.32C32.7731 42.72 32.8771 41.88 32.9331 40.8L33.0171 38.688H37.6731V44.256H38.6571ZM33.7131 40.848C33.6731 41.744 33.5971 42.484 33.4851 43.068C33.3731 43.644 33.1731 44.04 32.8851 44.256H36.8211V39.444H33.7851L33.7131 40.848ZM45.4775 38.688V45H44.6255V39.444H41.6015L41.5175 41.004C41.4535 42.316 41.3015 43.324 41.0615 44.028C40.8215 44.732 40.3935 45.084 39.7775 45.084C39.6095 45.084 39.4055 45.052 39.1655 44.988L39.2255 44.256C39.3695 44.288 39.4695 44.304 39.5255 44.304C39.8535 44.304 40.1015 44.152 40.2695 43.848C40.4375 43.544 40.5495 43.168 40.6055 42.72C40.6615 42.272 40.7095 41.68 40.7495 40.944L40.8575 38.688H45.4775ZM52.7475 38.688V45H51.9675V42.912H49.9875H49.7475L48.2835 45H47.3595L48.9315 42.792C48.4435 42.656 48.0675 42.424 47.8035 42.096C47.5395 41.768 47.4075 41.352 47.4075 40.848C47.4075 40.144 47.6475 39.608 48.1275 39.24C48.6075 38.872 49.2635 38.688 50.0955 38.688H52.7475ZM48.2715 40.872C48.2715 41.808 48.8675 42.276 50.0595 42.276H51.9675V39.444H50.1195C48.8875 39.444 48.2715 39.92 48.2715 40.872ZM61.3775 38.844C61.9615 38.844 62.4815 38.976 62.9375 39.24C63.4015 39.496 63.7615 39.86 64.0175 40.332C64.2735 40.796 64.4015 41.328 64.4015 41.928C64.4015 42.544 64.2655 43.092 63.9935 43.572C63.7295 44.044 63.3575 44.412 62.8775 44.676C62.3975 44.94 61.8455 45.072 61.2215 45.072C60.1735 45.072 59.3615 44.704 58.7855 43.968C58.2095 43.232 57.9215 42.216 57.9215 40.92C57.9215 39.568 58.1775 38.532 58.6895 37.812C59.2095 37.092 60.0175 36.604 61.1135 36.348L63.9455 35.7L64.0895 36.48L61.4255 37.092C60.5215 37.292 59.8575 37.648 59.4335 38.16C59.0095 38.664 58.7775 39.412 58.7375 40.404C58.9935 39.916 59.3495 39.536 59.8055 39.264C60.2615 38.984 60.7855 38.844 61.3775 38.844ZM61.2455 44.364C61.6855 44.364 62.0775 44.264 62.4215 44.064C62.7735 43.856 63.0455 43.568 63.2375 43.2C63.4375 42.832 63.5375 42.416 63.5375 41.952C63.5375 41.488 63.4415 41.08 63.2495 40.728C63.0575 40.376 62.7855 40.104 62.4335 39.912C62.0895 39.712 61.6935 39.612 61.2455 39.612C60.7975 39.612 60.3975 39.712 60.0455 39.912C59.7015 40.104 59.4295 40.376 59.2295 40.728C59.0375 41.08 58.9415 41.488 58.9415 41.952C58.9415 42.416 59.0375 42.832 59.2295 43.2C59.4295 43.568 59.7055 43.856 60.0575 44.064C60.4095 44.264 60.8055 44.364 61.2455 44.364ZM66.2276 38.688H67.0796V45H66.2276V38.688ZM66.6596 37.308C66.4836 37.308 66.3356 37.248 66.2156 37.128C66.0956 37.008 66.0356 36.864 66.0356 36.696C66.0356 36.536 66.0956 36.396 66.2156 36.276C66.3356 36.156 66.4836 36.096 66.6596 36.096C66.8356 36.096 66.9836 36.156 67.1036 36.276C67.2236 36.388 67.2836 36.524 67.2836 36.684C67.2836 36.86 67.2236 37.008 67.1036 37.128C66.9836 37.248 66.8356 37.308 66.6596 37.308ZM72.452 41.712C72.9 41.816 73.244 41.996 73.484 42.252C73.732 42.508 73.856 42.82 73.856 43.188C73.856 43.556 73.728 43.884 73.472 44.172C73.224 44.46 72.884 44.684 72.452 44.844C72.02 44.996 71.544 45.072 71.024 45.072C70.568 45.072 70.12 45.008 69.68 44.88C69.24 44.744 68.856 44.548 68.528 44.292L68.816 43.656C69.104 43.872 69.44 44.04 69.824 44.16C70.208 44.28 70.596 44.34 70.988 44.34C71.572 44.34 72.048 44.232 72.416 44.016C72.792 43.792 72.98 43.492 72.98 43.116C72.98 42.78 72.828 42.52 72.524 42.336C72.22 42.144 71.804 42.048 71.276 42.048H70.196V41.424H71.228C71.7 41.424 72.08 41.336 72.368 41.16C72.656 40.976 72.8 40.732 72.8 40.428C72.8 40.092 72.636 39.828 72.308 39.636C71.988 39.444 71.568 39.348 71.048 39.348C70.368 39.348 69.696 39.52 69.032 39.864L68.792 39.204C69.544 38.812 70.324 38.616 71.132 38.616C71.612 38.616 72.044 38.688 72.428 38.832C72.82 38.968 73.124 39.164 73.34 39.42C73.564 39.676 73.676 39.972 73.676 40.308C73.676 40.628 73.564 40.912 73.34 41.16C73.124 41.408 72.828 41.592 72.452 41.712ZM75.7901 38.688H76.6421V41.484H80.6141V38.688H81.4661V45H80.6141V42.216H76.6421V45H75.7901V38.688ZM89.4078 42.108H84.1278C84.1758 42.764 84.4278 43.296 84.8838 43.704C85.3398 44.104 85.9158 44.304 86.6118 44.304C87.0038 44.304 87.3638 44.236 87.6918 44.1C88.0198 43.956 88.3038 43.748 88.5438 43.476L89.0238 44.028C88.7438 44.364 88.3918 44.62 87.9678 44.796C87.5518 44.972 87.0918 45.06 86.5878 45.06C85.9398 45.06 85.3638 44.924 84.8598 44.652C84.3638 44.372 83.9758 43.988 83.6958 43.5C83.4158 43.012 83.2758 42.46 83.2758 41.844C83.2758 41.228 83.4078 40.676 83.6718 40.188C83.9438 39.7 84.3118 39.32 84.7758 39.048C85.2478 38.776 85.7758 38.64 86.3598 38.64C86.9438 38.64 87.4678 38.776 87.9318 39.048C88.3958 39.32 88.7598 39.7 89.0238 40.188C89.2878 40.668 89.4198 41.22 89.4198 41.844L89.4078 42.108ZM86.3598 39.372C85.7518 39.372 85.2398 39.568 84.8238 39.96C84.4158 40.344 84.1838 40.848 84.1278 41.472H88.6038C88.5478 40.848 88.3118 40.344 87.8958 39.96C87.4878 39.568 86.9758 39.372 86.3598 39.372ZM93.9458 45.06C93.3218 45.06 92.7618 44.924 92.2658 44.652C91.7778 44.38 91.3938 44 91.1138 43.512C90.8338 43.016 90.6938 42.46 90.6938 41.844C90.6938 41.228 90.8338 40.676 91.1138 40.188C91.3938 39.7 91.7778 39.32 92.2658 39.048C92.7618 38.776 93.3218 38.64 93.9458 38.64C94.4898 38.64 94.9738 38.748 95.3978 38.964C95.8298 39.172 96.1698 39.48 96.4178 39.888L95.7818 40.32C95.5738 40.008 95.3098 39.776 94.9898 39.624C94.6698 39.464 94.3218 39.384 93.9458 39.384C93.4898 39.384 93.0778 39.488 92.7098 39.696C92.3498 39.896 92.0658 40.184 91.8577 40.56C91.6578 40.936 91.5578 41.364 91.5578 41.844C91.5578 42.332 91.6578 42.764 91.8577 43.14C92.0658 43.508 92.3498 43.796 92.7098 44.004C93.0778 44.204 93.4898 44.304 93.9458 44.304C94.3218 44.304 94.6698 44.228 94.9898 44.076C95.3098 43.924 95.5738 43.692 95.7818 43.38L96.4178 43.812C96.1698 44.22 95.8298 44.532 95.3978 44.748C94.9658 44.956 94.4818 45.06 93.9458 45.06ZM103.338 38.688L100.182 45.756C99.9257 46.348 99.6297 46.768 99.2937 47.016C98.9577 47.264 98.5537 47.388 98.0817 47.388C97.7777 47.388 97.4937 47.34 97.2297 47.244C96.9657 47.148 96.7377 47.004 96.5457 46.812L96.9417 46.176C97.2617 46.496 97.6457 46.656 98.0937 46.656C98.3817 46.656 98.6257 46.576 98.8257 46.416C99.0337 46.256 99.2257 45.984 99.4017 45.6L99.6777 44.988L96.8577 38.688H97.7457L100.122 44.052L102.498 38.688H103.338Z" fill="white"/>
<path d="M38.6199 11.5077H32.5244V5.70947H38.6199V11.5077Z" fill="#FF671F"/>
<path d="M32.5269 29.0237H38.6176V11.5078H32.5332" fill="white"/>
<path d="M68.8349 17.0191C68.5503 16.4959 68.2055 16.0124 67.8148 15.5749L66.8675 14.5413C66.8477 14.5214 66.8477 14.4881 66.8675 14.4747L67.7886 13.468C68.1865 13.0376 68.5305 12.5604 68.8087 12.0373C69.0933 11.5141 69.3121 10.964 69.4714 10.4013C69.6236 9.83768 69.7036 9.28838 69.7036 8.74462C69.7036 7.55169 69.4587 6.42613 68.9815 5.37904C68.498 4.32561 67.8417 3.41169 67.0205 2.62301C66.1922 1.83432 65.2252 1.21209 64.1186 0.754735C63.0192 0.297378 61.8326 0.0722656 60.5739 0.0722656H42.7124V29.0039H60.5739C61.8326 29.0039 63.0184 28.7788 64.1186 28.3214C65.2252 27.8641 66.1922 27.2418 67.0205 26.4532C67.8417 25.6645 68.498 24.7506 68.9815 23.6971C69.4587 22.65 69.7036 21.5245 69.7036 20.3315C69.7036 19.7886 69.6307 19.2385 69.4785 18.6622C69.3319 18.0923 69.1139 17.5422 68.8349 17.0191ZM63.3759 21.4579C63.2237 21.809 63.005 22.1134 62.7331 22.379C62.4549 22.6374 62.1299 22.8427 61.7661 22.9948C61.3951 23.1407 60.9972 23.2136 60.5739 23.2136H48.8007V17.4431H60.5739C60.998 17.4431 61.3951 17.5161 61.7661 17.6619C62.1307 17.8141 62.4549 18.0194 62.7331 18.2778C63.005 18.5425 63.2237 18.8477 63.3759 19.1989C63.5353 19.55 63.6082 19.9273 63.6082 20.3315C63.6082 20.7287 63.5353 21.1068 63.3759 21.4579ZM63.3759 9.88366C63.2237 10.2411 63.005 10.5527 62.7331 10.8174C62.4549 11.0758 62.1299 11.2811 61.7661 11.4269C61.3951 11.5791 60.9972 11.6521 60.5739 11.6521H48.8007V5.86176H60.5739C60.998 5.86176 61.3951 5.93469 61.7661 6.08053C62.1307 6.23272 62.4549 6.43802 62.7331 6.69642C63.005 6.96117 63.2237 7.26633 63.3759 7.61748C63.5353 7.96862 63.6082 8.33958 63.6082 8.74383C63.6082 9.14808 63.5353 9.53251 63.3759 9.88366Z" fill="white"/>
<path d="M100.494 25.3866H100.488L90.7951 2.92063L89.5894 0.0322266H82.6728L82.3018 0.847068L82.2884 0.866884L82.0363 1.40985L80.9298 3.82108L70.6079 26.6715L70.4486 27.0163L69.5347 29.0106L76.2325 29.017H76.3253L77.0672 27.0694L77.087 27.0163L78.5709 23.2663H92.9542L93.968 25.7639L94.2661 26.5193L95.2466 28.9773L101.952 29.017H102.078L100.494 25.3866ZM85.6008 5.86849H86.1834L90.7348 17.4562H80.8965L85.6008 5.86849Z" fill="white"/>
<path d="M11.5446 0C10.0901 0 8.72514 0.229075 7.44977 0.687225C6.1752 1.14538 5.05915 1.7676 4.10321 2.55629C3.14728 3.34418 2.3903 4.26286 1.83545 5.3147C1.27822 6.36496 1 7.48973 1 8.68821C1 9.88669 1.27822 11.0146 1.83386 12.072C2.38951 13.1294 3.1457 14.0513 4.10163 14.8399C5.05756 15.6278 6.17361 16.2517 7.44819 16.7082C8.72356 17.1664 10.0885 17.3954 11.543 17.3954H18.5809C19.0716 17.3954 19.5289 17.47 19.9546 17.6174C20.3794 17.7664 20.7512 17.9709 21.0698 18.2341C21.3893 18.4964 21.6382 18.8032 21.8181 19.1535C21.9972 19.5039 22.0876 19.8804 22.0876 20.2846C22.0876 20.6889 21.9972 21.0654 21.8181 21.4158C21.6382 21.7661 21.3893 22.0721 21.0698 22.3344C20.7512 22.5976 20.3794 22.8029 19.9546 22.9511C19.5289 23.0993 19.0716 23.1731 18.5809 23.1731H2.9626V28.9721H18.5825C20.037 28.9721 21.4059 28.743 22.69 28.2848C23.9733 27.8275 25.0933 27.2045 26.0492 26.4158C27.006 25.6279 27.7574 24.7092 28.3051 23.6582C28.8528 22.6071 29.1263 21.4831 29.1263 20.2839C29.1263 19.0854 28.8528 17.9574 28.3051 16.8992C27.7574 15.8419 27.006 14.92 26.0492 14.1313C25.0933 13.3434 23.9733 12.7236 22.69 12.2734C21.4067 11.8215 20.0378 11.5964 18.5825 11.5964H11.5446C11.0539 11.5964 10.5966 11.5227 10.1717 11.3745C9.74607 11.2263 9.37432 11.021 9.05568 10.7578C8.73703 10.4954 8.48735 10.1855 8.30821 9.82883C8.12828 9.47214 8.03871 9.09167 8.03871 8.68742C8.03871 8.28317 8.12828 7.90666 8.30821 7.55631C8.48735 7.20596 8.73703 6.89921 9.05568 6.63684C9.37432 6.37368 9.74607 6.16918 10.1717 6.02016C10.5966 5.87193 11.0539 5.79822 11.5446 5.79822L38.6373 5.74115V0H11.5446Z" fill="white"/>
</svg>
