<svg width="40" height="41" viewBox="0 0 40 41" fill="none" xmlns="http://www.w3.org/2000/svg">
<path d="M34.0172 24.4416C33.9616 23.8201 33.6623 23.246 33.1844 22.8448L28.1247 18.5949C29.3422 16.997 29.472 14.8214 28.4533 13.09L29.2434 12.1493L30.326 13.0586C29.8247 13.6567 29.9022 14.5479 30.4993 15.0505L33.0253 17.1722C34.0224 18.0077 35.5074 17.8785 36.3452 16.8835C36.5126 16.6842 36.4869 16.3871 36.2876 16.2197C36.2876 16.2196 36.2875 16.2196 36.2875 16.2195L31.5962 12.2791C31.397 12.1117 31.0998 12.1375 30.9324 12.3367C30.9324 12.3368 30.9323 12.3368 30.9323 12.3369L29.652 11.2615C29.8348 10.2405 29.1553 9.26472 28.1343 9.08187C27.8072 9.02327 27.4702 9.05257 27.1581 9.16678L25.8801 8.09335C26.0475 7.89413 26.0217 7.59697 25.8225 7.42955C25.8225 7.42952 25.8224 7.42945 25.8223 7.42941L21.131 3.48898C20.9318 3.32156 20.6347 3.34733 20.4672 3.54656C20.4672 3.5466 20.4671 3.54668 20.4671 3.54672C19.6317 4.54373 19.7609 6.02879 20.7559 6.86659L23.282 8.98833C23.8802 9.48967 24.7713 9.41216 25.2739 8.81508L26.3565 9.72441L25.5662 10.6653C23.6849 9.96097 21.5645 10.4644 20.2007 11.9393L15.1411 7.68943C14.144 6.854 12.659 6.98317 11.8212 7.97818C10.3142 9.76752 10.5432 12.4397 12.3326 13.9467C12.3354 13.9491 12.3383 13.9515 12.3411 13.9539L16.6739 17.5932L12.2243 24.94C11.0254 23.9989 9.29647 24.1769 8.31446 25.3425C7.98029 25.7413 8.03194 26.3353 8.42999 26.6704L10.2559 28.2041C9.70647 29.1928 9.94709 30.4333 10.8263 31.1449C11.2715 31.5208 11.837 31.7244 12.4196 31.7188C12.933 31.7122 13.4283 31.5288 13.8221 31.1995L15.6473 32.7326C16.0461 33.0667 16.6402 33.0151 16.9753 32.6171C17.9613 31.4512 17.8379 29.7118 16.6972 28.6967L23.1649 23.0453L27.4975 26.6845C29.2921 28.1884 31.9653 27.9559 33.4733 26.1647C33.8756 25.685 34.0712 25.0653 34.0172 24.4416ZM31.3509 13.3039L35.2586 16.5862C34.7421 16.8896 34.0907 16.8352 33.6316 16.4505L31.1056 14.3288C30.9065 14.1612 30.8806 13.8642 31.0478 13.6648L31.3509 13.304L31.3509 13.3039ZM24.5521 8.20885C24.3846 8.40789 24.0876 8.43377 23.8882 8.2666L21.3622 6.14485C20.904 5.75913 20.738 5.12682 20.9476 4.56576L24.8553 7.848L24.5522 8.20889L24.5521 8.20885ZM12.9473 13.2322C11.5526 12.0643 11.3686 9.98681 12.5365 8.59211C12.5387 8.58953 12.5408 8.58695 12.543 8.58441C13.0456 7.98733 13.9367 7.90982 14.5349 8.41116L14.8957 8.71426L13.6833 10.1577C13.5159 10.357 13.5418 10.6542 13.7411 10.8216C13.9404 10.989 14.2376 10.9632 14.405 10.7639L15.6174 9.32045L16.3392 9.92672L14.5206 12.0919C14.3532 12.2912 14.3791 12.5884 14.5784 12.7558C14.7777 12.9232 15.0749 12.8973 15.2423 12.6981L17.0609 10.5329L17.7827 11.1391L15.9641 13.3043C15.7966 13.5036 15.8225 13.8008 16.0218 13.9682C16.2211 14.1356 16.5184 14.1097 16.6858 13.9105L18.5044 11.7453L19.6386 12.698L17.1669 16.7764L12.9473 13.2322ZM27.0782 10.3306C27.1483 10.247 27.2333 10.1772 27.329 10.1247C27.6705 9.92156 28.1034 9.95787 28.4062 10.2151C28.7156 10.4746 28.8238 10.9032 28.6748 11.2786C28.6402 11.3753 28.5884 11.4649 28.5217 11.5431L27.8826 12.3039C27.8772 12.2978 27.8705 12.2929 27.865 12.2868C27.7128 12.1167 27.5487 11.9574 27.3742 11.8101L27.0133 11.507C26.8381 11.3605 26.6529 11.2264 26.4589 11.1058C26.4521 11.1015 26.4461 11.0957 26.4392 11.0915L27.0782 10.3306ZM9.03621 25.9487C9.70635 25.1526 10.8945 25.0492 11.6921 25.7177L11.7326 25.7518L10.7441 27.3833L9.03617 25.9487L9.03621 25.9487ZM16.263 31.9996C16.2598 32.0034 16.2567 32.0071 16.2536 32.0109L14.5459 30.5765L15.9824 29.3213L16.0225 29.355C16.8192 30.0189 16.9269 31.2029 16.263 31.9996ZM26.6997 18.705L13.5112 30.2285L13.5087 30.2319L13.3068 30.4085C13.0657 30.642 12.7438 30.7738 12.408 30.7763C12.0511 30.7791 11.7049 30.6539 11.4324 30.4232C10.8618 29.9725 10.733 29.1592 11.1364 28.5542L11.2642 28.3432L11.2653 28.3421L12.7482 25.895L12.7501 25.8899L20.3689 13.3115L22.113 14.7764L18.7789 18.7459C18.1093 19.543 18.2128 20.7321 19.0099 21.4017C19.8071 22.0713 20.9962 21.9679 21.6658 21.1707L24.9999 17.2012L26.744 18.6662L26.6997 18.705ZM24.2783 16.5951L20.9441 20.5645C20.6093 20.9632 20.0148 21.0149 19.6162 20.6801C19.2176 20.3452 19.1658 19.7507 19.5006 19.3521L22.8348 15.3826L24.2783 16.5951ZM23.441 14.6609C23.7758 14.2623 24.3704 14.2106 24.769 14.5454C25.1676 14.8803 25.2193 15.4748 24.8845 15.8734L23.441 14.6609ZM25.6062 16.4796C26.2758 15.6824 26.1724 14.4933 25.3752 13.8237C24.578 13.1541 23.3889 13.2576 22.7193 14.0547L20.9203 12.5436C22.1019 11.2946 23.9492 10.9397 25.5097 11.6618C25.8332 11.8091 26.1352 11.9999 26.4072 12.2288L26.768 12.5319C27.0414 12.7611 27.2821 13.0266 27.4837 13.321C28.4626 14.7331 28.4311 16.6124 27.4054 17.9907L25.6063 16.4795L25.6062 16.4796ZM32.7515 25.5585C31.5787 26.9516 29.4995 27.1324 28.1038 25.9627L23.8842 22.4185L27.4745 19.2797L28.6087 20.2324L26.7901 22.3976C26.6227 22.5969 26.6486 22.8941 26.8479 23.0615C27.0472 23.2289 27.3444 23.203 27.5118 23.0038L29.3304 20.8386L30.0522 21.4448L28.2335 23.61C28.0661 23.8093 28.092 24.1065 28.2913 24.2739C28.4906 24.4414 28.7879 24.4155 28.9553 24.2162L30.7739 22.051L31.4956 22.6573L30.2832 24.1007C30.1158 24.3 30.1417 24.5973 30.341 24.7646C30.5403 24.932 30.8375 24.9062 31.0049 24.7069L32.2173 23.2635L32.5782 23.5666C33.1759 24.0669 33.2549 24.9571 32.7546 25.5548C32.7536 25.556 32.7525 25.5573 32.7515 25.5585Z" fill="black"/>
<path d="M15.0699 26.0931C15.0699 26.093 15.0698 26.093 15.0697 26.0929C14.8705 25.9255 14.5733 25.9513 14.4059 26.1505C14.4059 26.1505 14.4058 26.1506 14.4058 26.1507L11.981 29.0376C11.8136 29.2369 11.8394 29.5341 12.0387 29.7015C12.238 29.8689 12.5353 29.843 12.7027 29.6437L15.1275 26.7569C15.2949 26.5577 15.2691 26.2604 15.0699 26.0931Z" fill="black"/>
</svg>
