<svg width="13" height="14" viewBox="0 0 13 14" fill="none" xmlns="http://www.w3.org/2000/svg">
<path d="M12 12.5L8.8729 9.04462C9.86287 8.08731 10.4806 6.74485 10.4806 5.25938C10.4806 2.3593 8.12976 0 5.24032 0C2.35075 0 0 2.3593 0 5.25938C0 8.1594 2.35075 10.5188 5.24032 10.5188C6.31831 10.5188 7.32111 10.1901 8.15509 9.62775L11.3368 13.1401C11.4271 13.2343 11.5477 13.2818 11.6685 13.2818C11.7832 13.2818 11.8981 13.239 11.9872 13.1529C12.1704 12.9761 12.1761 12.6838 12 12.5ZM0.920107 5.25938C0.920107 2.86856 2.85816 0.923454 5.24032 0.923454C7.62247 0.923454 9.56047 2.86856 9.56047 5.25938C9.56047 7.6502 7.62247 9.59531 5.24032 9.59531C2.85816 9.59525 0.920107 7.6502 0.920107 5.25938Z" fill="black"/>
</svg>
