<svg width="31" height="30" viewBox="0 0 31 30" fill="none" xmlns="http://www.w3.org/2000/svg">
<path d="M25.0338 25.2021L23.8804 21.7697C23.4773 20.5713 22.4489 19.6868 21.1953 19.4605L17.8656 18.8596V18.6036C18.445 18.27 18.9492 17.8238 19.3508 17.2955H20.3568C21.1809 17.2955 21.8515 16.6304 21.8515 15.8131V9.88312C21.8515 6.34096 18.9458 3.45901 15.3743 3.45901C11.8029 3.45901 8.89716 6.34096 8.89716 9.88312V13.3423C8.89716 14.295 9.58025 15.0921 10.4861 15.2779C10.7656 16.6981 11.6604 17.8999 12.8831 18.6036V18.8596L9.55285 19.4605C8.29976 19.6868 7.27089 20.5713 6.8683 21.7697L6.66901 22.3632L4.97198 20.6801C4.77767 20.4873 4.77767 20.1735 4.97198 19.9808L6.94005 18.0294L3.24606 14.3657L1.0219 16.5716C0.36322 17.2249 0.000498242 18.0936 0.000498242 19.0177C0.000498242 19.9418 0.36322 20.81 1.0219 21.4633L7.75568 28.1419C8.41436 28.7952 9.29027 29.1554 10.222 29.1554C11.1537 29.1554 12.0291 28.7952 12.6724 28.1567L15.0993 25.9513L14.3425 25.2021H25.0338ZM20.855 15.8131C20.855 16.0858 20.6313 16.3072 20.3568 16.3072H19.9378C20.0823 15.9806 20.1919 15.6362 20.2626 15.2779C20.4759 15.2339 20.6722 15.1499 20.855 15.0441V15.8131ZM20.3568 14.1932V12.4913C20.6532 12.6628 20.855 12.9781 20.855 13.3423C20.855 13.7064 20.6532 14.0217 20.3568 14.1932ZM10.3919 14.1932C10.0954 14.0217 9.89365 13.7064 9.89365 13.3423C9.89365 12.9781 10.0954 12.6628 10.3919 12.4913V14.1932ZM10.3919 10.8714V11.4358C10.2145 11.4817 10.0481 11.5509 9.89365 11.6404V9.88312C9.89365 6.88603 12.3525 4.44734 15.3743 4.44734C18.3962 4.44734 20.855 6.88603 20.855 9.88312V11.6404C20.7006 11.5509 20.5342 11.4812 20.3568 11.4358V10.8714H19.8585C18.3852 10.8714 17.0001 10.3022 15.9578 9.26887L15.3743 8.69021L14.7909 9.26887C13.7486 10.3022 12.3634 10.8714 10.8901 10.8714H10.3919ZM11.3884 14.3306V11.841C12.8846 11.7293 14.2797 11.117 15.3743 10.0847C16.469 11.117 17.8641 11.7298 19.3603 11.841V14.3306C19.3603 15.0511 19.162 15.7251 18.8212 16.3072H15.3743V17.2955H18.0021C17.2996 17.9088 16.3813 18.2839 15.3743 18.2839C13.1766 18.2839 11.3884 16.5103 11.3884 14.3306ZM16.8691 19.0444V19.0676L15.3743 20.5501L13.8796 19.0676V19.0444C14.3519 19.1916 14.8537 19.2722 15.3743 19.2722C15.895 19.2722 16.3967 19.1916 16.8691 19.0444ZM7.81298 22.082C8.10046 21.2261 8.83537 20.5941 9.73072 20.432L13.2134 19.8044L15.3743 21.9476L17.5347 19.8049L21.017 20.4325C21.9123 20.5946 22.6472 21.2261 22.9347 22.0825L23.6517 24.2138H13.346L11.4053 22.2891L9.24892 24.2237C9.06108 24.411 8.73274 24.411 8.5444 24.2237L7.45623 23.1444L7.81298 22.082ZM3.24557 15.7631L5.53052 18.0294L4.98942 18.566L2.70447 16.2998L3.24557 15.7631ZM11.9823 27.4441C11.5119 27.9097 10.8861 28.1671 10.221 28.1671C9.55584 28.1671 8.93004 27.9097 8.4592 27.4432L1.72542 20.7651C1.25508 20.2986 0.995991 19.6779 0.995991 19.0182C0.995991 18.358 1.25508 17.7373 1.72542 17.2708L1.99946 16.9991L4.28441 19.2653L4.26647 19.2831C3.68402 19.8612 3.68402 20.8016 4.26647 21.3798L7.83938 24.9234C8.12189 25.2031 8.49706 25.3578 8.89666 25.3578C9.29625 25.3578 9.67143 25.2036 9.9355 24.9407L9.97287 24.9076L12.2683 27.1842L11.9823 27.4441ZM13.0037 26.5151L10.7133 24.2435L11.3714 23.6534L13.6579 25.9211L13.0037 26.5151Z" fill="black"/>
<path d="M15.3743 -0.00012207C8.86427 -0.00012207 3.25653 4.46611 1.79866 10.696L0.85449 9.13496L0 9.64345L1.75133 12.5378L4.66955 10.8008L4.15686 9.95329L2.80661 10.7568C4.21864 5.05763 9.38593 0.988202 15.3743 0.988202C16.6832 0.988202 17.9747 1.18093 19.2128 1.56143L19.5078 0.61758C18.174 0.207426 16.7834 -0.00012207 15.3743 -0.00012207Z" fill="black"/>
<path d="M30.5778 9.45913L27.6596 7.72215L25.9087 10.6169L26.7632 11.1254L27.6351 9.68397C28.094 11.0157 28.3287 12.4088 28.3287 13.8364C28.3287 16.7752 27.3023 19.6483 25.4394 21.9258L26.2132 22.5485C28.2201 20.0955 29.3252 17.001 29.3252 13.8364C29.3252 12.3248 29.0796 10.8487 28.6007 9.43541L30.0651 10.3066L30.5778 9.45913Z" fill="black"/>
</svg>
