<svg width="41" height="41" viewBox="0 0 41 41" fill="none" xmlns="http://www.w3.org/2000/svg">
<path d="M20.5 9.56667C21.0406 9.56667 21.5691 9.40636 22.0186 9.10602C22.4681 8.80567 22.8184 8.37879 23.0253 7.87933C23.2322 7.37988 23.2863 6.8303 23.1808 6.30009C23.0753 5.76987 22.815 5.28284 22.4328 4.90057C22.0505 4.51831 21.5635 4.25799 21.0332 4.15252C20.503 4.04705 19.9535 4.10118 19.454 4.30806C18.9545 4.51494 18.5277 4.86528 18.2273 5.31477C17.927 5.76427 17.7667 6.29273 17.7667 6.83333C17.7667 7.55826 18.0546 8.25349 18.5672 8.76609C19.0798 9.27869 19.7751 9.56667 20.5 9.56667ZM20.5 5.46667C20.7703 5.46667 21.0345 5.54682 21.2593 5.69699C21.484 5.84716 21.6592 6.06061 21.7626 6.31033C21.8661 6.56006 21.8931 6.83485 21.8404 7.09996C21.7877 7.36506 21.6575 7.60858 21.4664 7.79971C21.2752 7.99084 21.0317 8.12101 20.7666 8.17374C20.5015 8.22647 20.2267 8.19941 19.977 8.09597C19.7273 7.99253 19.5138 7.81736 19.3637 7.59261C19.2135 7.36787 19.1333 7.10363 19.1333 6.83333C19.1333 6.47087 19.2773 6.12325 19.5336 5.86695C19.7899 5.61065 20.1375 5.46667 20.5 5.46667Z" fill="#FF671F"/>
<path d="M40.6447 11.0153L20.828 0.0819999C20.7271 0.0281617 20.6144 0 20.5 0C20.3856 0 20.2729 0.0281617 20.172 0.0819999L0.355333 11.0153C0.248346 11.0753 0.159127 11.1626 0.0967233 11.2682C0.0343198 11.3738 0.00095084 11.494 0 11.6167V40.3167C0 40.4979 0.0719938 40.6717 0.200144 40.7999C0.328294 40.928 0.502102 41 0.683333 41H40.3167C40.4979 41 40.6717 40.928 40.7999 40.7999C40.928 40.6717 41 40.4979 41 40.3167V11.6167C40.9991 11.494 40.9657 11.3738 40.9033 11.2682C40.8409 11.1626 40.7517 11.0753 40.6447 11.0153ZM2.73333 39.6333H1.36667V12.3H2.73333V39.6333ZM13.6667 39.6333H4.1V30.0667H7.51667V34.85C7.51615 34.9852 7.55627 35.1174 7.63181 35.2295C7.70736 35.3416 7.81485 35.4284 7.94033 35.4787C8.06478 35.531 8.20193 35.5453 8.33449 35.5198C8.46705 35.4942 8.58907 35.43 8.68517 35.3352L9.56667 34.4468L10.4482 35.3352C10.5774 35.4626 10.7518 35.5339 10.9333 35.5333C11.023 35.5357 11.1119 35.517 11.193 35.4787C11.3185 35.4284 11.426 35.3416 11.5015 35.2295C11.5771 35.1174 11.6172 34.9852 11.6167 34.85V30.0667H13.6667V39.6333ZM8.88333 33.2032V30.0667H10.25V33.2032L10.0518 32.9982C9.92281 32.8701 9.74842 32.7983 9.56667 32.7983C9.38491 32.7983 9.21052 32.8701 9.0815 32.9982L8.88333 33.2032ZM13.6667 28.7H4.1V19.1333H7.51667V23.9167C7.51615 24.0518 7.55627 24.1841 7.63181 24.2962C7.70736 24.4083 7.81485 24.4951 7.94033 24.5453C8.06478 24.5977 8.20193 24.612 8.33449 24.5864C8.46705 24.5609 8.58907 24.4967 8.68517 24.4018L9.56667 23.5135L10.4482 24.4018C10.5774 24.5293 10.7518 24.6005 10.9333 24.6C11.023 24.6024 11.1119 24.5836 11.193 24.5453C11.3185 24.4951 11.426 24.4083 11.5015 24.2962C11.5771 24.1841 11.6172 24.0518 11.6167 23.9167V19.1333H13.6667V28.7ZM8.88333 22.2698V19.1333H10.25V22.2698L10.0518 22.0648C9.92281 21.9368 9.74842 21.865 9.56667 21.865C9.38491 21.865 9.21052 21.9368 9.0815 22.0648L8.88333 22.2698ZM25.9667 39.6333H15.0333V30.0667H18.45V34.85C18.4495 34.9852 18.4896 35.1174 18.5651 35.2295C18.6407 35.3416 18.7482 35.4284 18.8737 35.4787C18.9981 35.531 19.1353 35.5453 19.2678 35.5198C19.4004 35.4942 19.5224 35.43 19.6185 35.3352L20.5 34.4468L21.3815 35.3352C21.5108 35.4626 21.6851 35.5339 21.8667 35.5333C21.9563 35.5357 22.0453 35.517 22.1263 35.4787C22.2518 35.4284 22.3593 35.3416 22.4349 35.2295C22.5104 35.1174 22.5505 34.9852 22.55 34.85V30.0667H25.9667V39.6333ZM19.8167 33.2032V30.0667H21.1833V33.2032L20.9852 32.9982C20.8561 32.8701 20.6818 32.7983 20.5 32.7983C20.3182 32.7983 20.1439 32.8701 20.0148 32.9982L19.8167 33.2032ZM25.9667 28.7H15.0333V19.1333H18.45V23.9167C18.4495 24.0518 18.4896 24.1841 18.5651 24.2962C18.6407 24.4083 18.7482 24.4951 18.8737 24.5453C18.9981 24.5977 19.1353 24.612 19.2678 24.5864C19.4004 24.5609 19.5224 24.4967 19.6185 24.4018L20.5 23.5135L21.3815 24.4018C21.5108 24.5293 21.6851 24.6005 21.8667 24.6C21.9563 24.6024 22.0453 24.5836 22.1263 24.5453C22.2518 24.4951 22.3593 24.4083 22.4349 24.2962C22.5104 24.1841 22.5505 24.0518 22.55 23.9167V19.1333H25.9667V28.7ZM19.8167 22.2698V19.1333H21.1833V22.2698L20.9852 22.0648C20.8561 21.9368 20.6818 21.865 20.5 21.865C20.3182 21.865 20.1439 21.9368 20.0148 22.0648L19.8167 22.2698ZM36.9 39.6333H27.3333V30.0667H30.0667V34.85C30.0662 34.9852 30.1063 35.1174 30.1818 35.2295C30.2574 35.3416 30.3648 35.4284 30.4903 35.4787C30.6148 35.531 30.7519 35.5453 30.8845 35.5198C31.017 35.4942 31.1391 35.43 31.2352 35.3352L32.1167 34.4468L32.9982 35.3352C33.1274 35.4626 33.3018 35.5339 33.4833 35.5333C33.573 35.5357 33.6619 35.517 33.743 35.4787C33.8685 35.4284 33.976 35.3416 34.0515 35.2295C34.1271 35.1174 34.1672 34.9852 34.1667 34.85V30.0667H36.9V39.6333ZM31.4333 33.2032V30.0667H32.8V33.2032L32.6018 32.9982C32.4728 32.8701 32.2984 32.7983 32.1167 32.7983C31.9349 32.7983 31.7605 32.8701 31.6315 32.9982L31.4333 33.2032ZM36.9 28.7H27.3333V19.1333H30.0667V23.9167C30.0662 24.0518 30.1063 24.1841 30.1818 24.2962C30.2574 24.4083 30.3648 24.4951 30.4903 24.5453C30.6148 24.5977 30.7519 24.612 30.8845 24.5864C31.017 24.5609 31.1391 24.4967 31.2352 24.4018L32.1167 23.5135L32.9982 24.4018C33.1274 24.5293 33.3018 24.6005 33.4833 24.6C33.573 24.6024 33.6619 24.5836 33.743 24.5453C33.8685 24.4951 33.976 24.4083 34.0515 24.2962C34.1271 24.1841 34.1672 24.0518 34.1667 23.9167V19.1333H36.9V28.7ZM31.4333 22.2698V19.1333H32.8V22.2698L32.6018 22.0648C32.4728 21.9368 32.2984 21.865 32.1167 21.865C31.9349 21.865 31.7605 21.9368 31.6315 22.0648L31.4333 22.2698ZM36.9 17.7667H4.1V15.0333H36.9V17.7667ZM36.9 13.6667H4.1V12.3H36.9V13.6667ZM3.33467 10.9333L20.5 1.46233L37.6653 10.9333H3.33467ZM39.6333 39.6333H38.2667V12.3H39.6333V39.6333Z" fill="#FF671F"/>
</svg>
