<svg width="41" height="41" viewBox="0 0 41 41" fill="none" xmlns="http://www.w3.org/2000/svg">
<path d="M40.3965 36.779H38.408V12.8996C38.408 12.8033 38.3849 12.7083 38.3408 12.6227C38.2966 12.5371 38.2326 12.4633 38.1541 12.4075L20.8497 0.111484C20.7475 0.0389595 20.6253 0 20.5 0C20.3747 0 20.2525 0.0389595 20.1503 0.111484L2.84585 12.4075C2.76736 12.4633 2.70336 12.5371 2.65921 12.6227C2.61505 12.7083 2.59202 12.8033 2.59203 12.8996V36.779H0.603519C0.524251 36.779 0.445752 36.7946 0.372509 36.8249C0.299266 36.8552 0.232717 36.8996 0.176666 36.9557C0.120615 37.0117 0.0761616 37.0783 0.045848 37.1515C0.0155343 37.2248 -4.52362e-05 37.3033 9.86554e-08 37.3826V40.3965C-4.52362e-05 40.4757 0.0155343 40.5542 0.045848 40.6275C0.0761616 40.7007 0.120615 40.7673 0.176666 40.8233C0.232717 40.8794 0.299266 40.9238 0.372509 40.9541C0.445752 40.9845 0.524251 41 0.603519 41H40.3965C40.4757 41 40.5542 40.9845 40.6275 40.9541C40.7007 40.9238 40.7673 40.8794 40.8233 40.8233C40.8794 40.7673 40.9238 40.7007 40.9542 40.6275C40.9845 40.5542 41 40.4757 41 40.3965V37.3826C41 37.3033 40.9845 37.2248 40.9542 37.1515C40.9238 37.0783 40.8794 37.0117 40.8233 36.9557C40.7673 36.8996 40.7007 36.8552 40.6275 36.8249C40.5542 36.7946 40.4757 36.779 40.3965 36.779ZM3.79907 13.211L20.5 1.34408L37.2009 13.211V36.779H34.6555V16.6781C34.6555 16.5988 34.6399 16.5203 34.6096 16.4471C34.5793 16.3738 34.5348 16.3073 34.4788 16.2512C34.4227 16.1952 34.3562 16.1507 34.283 16.1204C34.2097 16.0901 34.1312 16.0745 34.0519 16.0746H6.94668C6.86741 16.0745 6.78891 16.0901 6.71567 16.1204C6.64243 16.1507 6.57588 16.1952 6.51983 16.2512C6.46378 16.3073 6.41932 16.3738 6.38901 16.4471C6.3587 16.5203 6.34312 16.5988 6.34316 16.6781V36.779H3.79907V13.211ZM28.9237 36.779V29.5631C28.9237 29.4031 28.8602 29.2495 28.747 29.1364C28.6338 29.0232 28.4803 28.9596 28.3202 28.9596H25.0136V21.7423C25.0136 21.5822 24.9501 21.4287 24.8369 21.3155C24.7237 21.2023 24.5702 21.1388 24.4101 21.1388H16.5899C16.4298 21.1388 16.2763 21.2023 16.1631 21.3155C16.0499 21.4287 15.9864 21.5822 15.9864 21.7423V28.9596H12.6798C12.5197 28.9596 12.3662 29.0232 12.253 29.1364C12.1398 29.2495 12.0763 29.4031 12.0763 29.5631V36.779H7.55158V17.2816H33.4484V36.779H28.9237ZM13.2833 36.779V32.5656H19.8965V36.779H13.2833ZM27.7167 31.3586H21.1035V30.1667H27.7167V31.3586ZM23.8066 23.5381H17.1934V22.3462H23.8066V23.5381ZM17.1934 24.7452H23.8066V28.9596H17.1934V24.7452ZM19.8965 30.1667V31.3586H13.2833V30.1667H19.8965ZM21.1035 32.5656H27.7167V36.779H21.1035V32.5656ZM39.793 39.7943H1.20704V37.9861H39.793V39.7943Z" fill="#FF671F"/>
<path d="M18.149 14.6888H22.851C23.011 14.6888 23.1645 14.6252 23.2777 14.5121C23.3909 14.3989 23.4545 14.2454 23.4545 14.0853V11.7136C23.4544 11.5535 23.3908 11.4001 23.2776 11.2869C23.1645 11.1737 23.011 11.1101 22.851 11.11H18.149C17.989 11.1101 17.8355 11.1737 17.7224 11.2869C17.6092 11.4001 17.5456 11.5535 17.5455 11.7136V14.086C17.5457 14.2459 17.6094 14.3993 17.7225 14.5123C17.8357 14.6253 17.9891 14.6888 18.149 14.6888ZM18.7526 12.3171H22.2474V13.4818H18.7526V12.3171Z" fill="#FF671F"/>
<path d="M25.3516 14.6888H30.0528C30.2129 14.6888 30.3664 14.6252 30.4796 14.5121C30.5928 14.3989 30.6564 14.2454 30.6564 14.0853V11.7136C30.6563 11.5535 30.5927 11.4001 30.4795 11.2869C30.3663 11.1737 30.2129 11.1101 30.0528 11.11H25.3516C25.1916 11.1101 25.0381 11.1737 24.925 11.2869C24.8118 11.4001 24.7482 11.5535 24.7481 11.7136V14.086C24.7483 14.2459 24.8119 14.3993 24.9251 14.5123C25.0383 14.6253 25.1917 14.6888 25.3516 14.6888ZM25.9551 12.3171H29.4497V13.4818H25.9551V12.3171Z" fill="#FF671F"/>
<path d="M10.9472 14.6888H15.6484C15.8085 14.6888 15.962 14.6252 16.0751 14.5121C16.1883 14.3989 16.2519 14.2454 16.2519 14.0853V11.7136C16.2518 11.5535 16.1882 11.4001 16.075 11.2869C15.9619 11.1737 15.8084 11.1101 15.6484 11.11H10.9472C10.7871 11.1101 10.6337 11.1737 10.5205 11.2869C10.4073 11.4001 10.3437 11.5535 10.3436 11.7136V14.086C10.3438 14.2459 10.4075 14.3993 10.5206 14.5123C10.6338 14.6253 10.7872 14.6888 10.9472 14.6888ZM11.5507 12.3171H15.0449V13.4818H11.5503L11.5507 12.3171Z" fill="#FF671F"/>
</svg>
