<svg width="57" height="57" viewBox="0 0 57 57" fill="none" xmlns="http://www.w3.org/2000/svg">
<path d="M47.8368 33.8086C47.7587 32.9347 47.3377 32.1273 46.6657 31.5631L39.5505 25.5868C41.2626 23.3397 41.4452 20.2802 40.0125 17.8454L41.1237 16.5225L42.6461 17.8013C41.9411 18.6424 42.0501 19.8956 42.8898 20.6024L46.442 23.5861C47.8441 24.7609 49.9325 24.5793 51.1106 23.18C51.346 22.8999 51.3098 22.482 51.0296 22.2466C51.0295 22.2465 51.0294 22.2464 51.0294 22.2464L44.4323 16.7052C44.1521 16.4697 43.7342 16.506 43.4988 16.7861C43.4988 16.7862 43.4987 16.7863 43.4986 16.7864L41.6982 15.2742C41.9553 13.8384 40.9998 12.4661 39.5641 12.209C39.1039 12.1266 38.6302 12.1678 38.1912 12.3284L36.394 10.8189C36.6294 10.5388 36.5932 10.1209 36.313 9.88545C36.313 9.8854 36.3129 9.8853 36.3128 9.88525L29.7157 4.34401C29.4355 4.10858 29.0176 4.14482 28.7822 4.42498C28.7821 4.42504 28.782 4.42516 28.782 4.42522C27.6072 5.82726 27.7889 7.91562 29.1882 9.09377L32.7404 12.0775C33.5816 12.7825 34.8348 12.6735 35.5415 11.8338L37.0639 13.1126L35.9526 14.4357C33.3071 13.4452 30.3253 14.1532 28.4074 16.2273L21.2923 10.2509C19.8902 9.07608 17.8018 9.25771 16.6237 10.657C14.5045 13.1732 14.8265 16.931 17.3428 19.0502C17.3468 19.0535 17.3508 19.0569 17.3548 19.0603L23.4478 24.1781L17.1905 34.5095C15.5045 33.1861 13.0733 33.4364 11.6923 35.0755C11.2224 35.6363 11.295 36.4716 11.8548 36.9429L14.4224 39.0996C13.6498 40.49 13.9882 42.2345 15.2245 43.2352C15.8507 43.7638 16.6458 44.0501 17.4652 44.0422C18.1871 44.0329 18.8837 43.775 19.4374 43.3119L22.0041 45.4678C22.5649 45.9377 23.4004 45.8651 23.8716 45.3054C25.2582 43.6659 25.0847 41.2198 23.4805 39.7924L32.5758 31.8451L38.6685 36.9627C41.1922 39.0775 44.9514 38.7506 47.0719 36.2318C47.6377 35.5572 47.9127 34.6858 47.8368 33.8086ZM44.0873 18.1463L49.5825 22.7619C48.8562 23.1886 47.9402 23.1121 47.2946 22.5712L43.7423 19.5875C43.4624 19.3519 43.426 18.9342 43.6611 18.6538L44.0873 18.1463L44.0873 18.1463ZM34.5266 10.9813C34.291 11.2612 33.8733 11.2976 33.5929 11.0625L30.0406 8.07884C29.3963 7.53641 29.1629 6.64723 29.4577 5.85824L34.9529 10.4739L34.5266 10.9814L34.5266 10.9813ZM18.2073 18.0454C16.2459 16.403 15.9872 13.4816 17.6296 11.5203C17.6326 11.5167 17.6357 11.513 17.6387 11.5095C18.3454 10.6698 19.5986 10.5608 20.4398 11.2658L20.9472 11.6921L19.2423 13.7219C19.0069 14.0021 19.0432 14.4201 19.3235 14.6555C19.6038 14.891 20.0218 14.8546 20.2572 14.5743L21.9621 12.5445L22.9771 13.3971L20.4197 16.4418C20.1843 16.7221 20.2207 17.1401 20.5009 17.3755C20.7812 17.6109 21.1992 17.5745 21.4346 17.2943L23.992 14.2495L25.007 15.1021L22.4496 18.1468C22.2142 18.4271 22.2505 18.845 22.5308 19.0805C22.8111 19.3159 23.2291 19.2795 23.4645 18.9993L26.0219 15.9545L27.6169 17.2942L24.141 23.0294L18.2073 18.0454ZM38.0789 13.9651C38.1774 13.8475 38.297 13.7493 38.4315 13.6756C38.9117 13.3898 39.5205 13.4409 39.9463 13.8027C40.3814 14.1676 40.5336 14.7703 40.324 15.2981C40.2754 15.4341 40.2025 15.5602 40.1088 15.6701L39.2101 16.74C39.2024 16.7315 39.1929 16.7245 39.1853 16.716C38.9712 16.4767 38.7405 16.2527 38.4951 16.0456L37.9876 15.6194C37.7412 15.4133 37.4807 15.2248 37.208 15.0551C37.1983 15.0491 37.19 15.041 37.1802 15.035L38.0789 13.9651ZM12.7073 35.928C13.6497 34.8084 15.3205 34.6631 16.4421 35.6031L16.4991 35.6511L15.109 37.9454L12.7072 35.928L12.7073 35.928ZM22.87 44.4371C22.8655 44.4424 22.8611 44.4476 22.8567 44.4529L20.4553 42.4359L22.4753 40.6708L22.5317 40.7181C23.6521 41.6517 23.8035 43.3167 22.87 44.4371ZM37.5466 25.7415L19.0002 41.9465L18.9967 41.9513L18.7129 42.1996C18.3737 42.528 17.9211 42.7132 17.4489 42.7168C16.9469 42.7208 16.4601 42.5447 16.077 42.2203C15.2746 41.5865 15.0934 40.4427 15.6607 39.592L15.8404 39.2953L15.8419 39.2937L17.9273 35.8524L17.93 35.8454L28.6439 18.1569L31.0966 20.217L26.4079 25.799C25.4663 26.92 25.6118 28.5922 26.7329 29.5338C27.8539 30.4754 29.526 30.33 30.4676 29.2089L35.1563 23.6269L37.6088 25.6869L37.5466 25.7415ZM34.1414 22.7745L29.4528 28.3565C28.982 28.9171 28.1459 28.9898 27.5854 28.519C27.0248 28.0481 26.9521 27.2121 27.4229 26.6515L32.1115 21.0695L34.1414 22.7745ZM32.9641 20.0546C33.4349 19.494 34.271 19.4213 34.8315 19.8922C35.3921 20.363 35.4648 21.1991 34.994 21.7596L32.9641 20.0546ZM36.0089 22.6121C36.9505 21.491 36.805 19.8189 35.6839 18.8773C34.5629 17.9357 32.8908 18.0811 31.9492 19.2021L29.4192 17.0771C31.081 15.3207 33.6787 14.8215 35.8731 15.8371C36.3281 16.0442 36.7527 16.3124 37.1352 16.6343L37.6427 17.0606C38.0271 17.383 38.3656 17.7563 38.649 18.1704C40.0257 20.156 39.9814 22.7988 38.5389 24.7371L36.0089 22.612L36.0089 22.6121ZM46.0569 35.3793C44.4076 37.3383 41.4839 37.5926 39.521 35.9477L33.5873 30.9637L38.6361 26.5498L40.2311 27.8895L37.6737 30.9342C37.4383 31.2145 37.4746 31.6325 37.7549 31.8679C38.0352 32.1033 38.4532 32.0669 38.6886 31.7867L41.246 28.742L42.261 29.5945L39.7036 32.6392C39.4681 32.9195 39.5045 33.3375 39.7848 33.5729C40.0651 33.8083 40.4831 33.7719 40.7184 33.4917L43.2759 30.4469L44.2908 31.2994L42.5859 33.3292C42.3505 33.6095 42.3869 34.0275 42.6671 34.2629C42.9474 34.4983 43.3654 34.462 43.6008 34.1817L45.3057 32.1519L45.8132 32.5781C46.6538 33.2817 46.7648 34.5335 46.0612 35.3741C46.0598 35.3758 46.0584 35.3776 46.0569 35.3793Z" fill="#FF671F"/>
<path d="M21.1922 36.131C21.1921 36.131 21.192 36.1309 21.1919 36.1308C20.9118 35.8954 20.4939 35.9316 20.2585 36.2118C20.2584 36.2118 20.2583 36.212 20.2583 36.212L16.8483 40.2717C16.6129 40.552 16.6493 40.9699 16.9296 41.2054C17.2099 41.4408 17.6278 41.4044 17.8632 41.1242L21.2732 37.0645C21.5085 36.7844 21.4723 36.3664 21.1922 36.131Z" fill="#FF671F"/>
</svg>
