<svg width="33" height="23" viewBox="0 0 33 23" fill="none" xmlns="http://www.w3.org/2000/svg">
<path d="M31.8939 3.56773C31.5185 2.17269 30.4186 1.07305 29.0238 0.697396C26.4755 0 16.2821 0 16.2821 0C16.2821 0 6.08898 0 3.54064 0.670812C2.17269 1.04622 1.04597 2.17293 0.670563 3.56773C0 6.11582 0 11.4003 0 11.4003C0 11.4003 0 16.7114 0.670563 19.2329C1.04622 20.6277 2.14585 21.7276 3.54089 22.1033C6.11582 22.8006 16.2823 22.8006 16.2823 22.8006C16.2823 22.8006 26.4755 22.8006 29.0238 22.1298C30.4188 21.7544 31.5185 20.6545 31.8941 19.2598C32.5647 16.7114 32.5647 11.4272 32.5647 11.4272C32.5647 11.4272 32.5915 6.11582 31.8939 3.56773Z" fill="#FF0000"/>
<path d="M13.0361 16.2821L21.5125 11.4001L13.0361 6.51807V16.2821Z" fill="white"/>
</svg>
