<svg width="41" height="41" viewBox="0 0 41 41" fill="none" xmlns="http://www.w3.org/2000/svg">
<path d="M0.0901964 3.75805L2.8225 8.53914C2.91467 8.7007 3.06893 8.81759 3.24932 8.86283L5.79842 9.50008L14.5413 18.2427L15.5073 17.277L6.62761 8.39781C6.54023 8.31015 6.43064 8.24805 6.31066 8.21799L3.86131 7.60349L1.53503 3.53046L3.52946 1.53608L7.60432 3.86454L8.21912 6.31381C8.2489 6.43407 8.31128 6.54393 8.39867 6.63131L17.2784 15.5107L18.2441 14.5447L9.50125 5.80215L8.86398 3.25454C8.81874 3.07387 8.70185 2.91933 8.54028 2.82689L3.75875 0.0949544C3.49209 -0.0567729 3.15659 -0.0118167 2.93911 0.204816L0.207087 2.93703C-0.0126444 3.1531 -0.060412 3.48915 0.0901964 3.75805Z" fill="#FF671F"/>
<path d="M28.488 13.4613L13.4612 28.4879L12.4952 27.5219L27.5223 12.4956L28.488 13.4613Z" fill="#FF671F"/>
<path d="M10.8312 29.0195C10.7075 28.8139 10.4855 28.6883 10.2456 28.6883H6.14741C5.90773 28.6883 5.68547 28.8139 5.56211 29.0195L3.51288 32.4345C3.38279 32.6509 3.38279 32.9214 3.51288 33.1381L5.56211 36.5531C5.68547 36.7585 5.90773 36.8843 6.14741 36.8843H10.2456C10.4855 36.8843 10.7075 36.7585 10.8312 36.5531L12.8801 33.1381C13.0102 32.9214 13.0102 32.6509 12.8801 32.4345L10.8312 29.0195ZM9.85923 35.5182H6.53404L4.89477 32.7863L6.53404 30.0541H9.85923L11.4985 32.7863L9.85923 35.5182Z" fill="#FF671F"/>
<path d="M32.786 16.3938C37.2972 16.409 40.9669 12.7642 40.9821 8.25311C40.9843 7.5664 40.9 6.8825 40.7311 6.21687C40.6401 5.85076 40.2695 5.62794 39.9034 5.71898C39.7831 5.74905 39.6735 5.81114 39.5858 5.89852L35.334 10.1475L31.9605 9.02326L30.8354 5.6507L35.0873 1.39812C35.3539 1.1312 35.3536 0.698773 35.0867 0.432126C34.9987 0.344181 34.888 0.281804 34.7669 0.25202C30.392 -0.85587 25.9476 1.79233 24.8397 6.16686C24.6714 6.83052 24.5874 7.51274 24.5896 8.19748C24.5913 8.73526 24.6467 9.27137 24.7557 9.79792L9.79685 24.756C9.27028 24.6472 8.73416 24.5919 8.19664 24.5899C3.66967 24.5899 0 28.2595 0 32.7863C0 37.3128 3.66967 40.9824 8.19664 40.9824C12.7233 40.9824 16.393 37.3128 16.393 32.7863C16.3913 32.2485 16.3357 31.7124 16.2269 31.1859L19.8081 27.6048L21.3743 29.171C21.6412 29.4376 22.0734 29.4376 22.3403 29.171L22.6817 28.8293C22.9813 28.5317 23.4654 28.5317 23.7649 28.8293C24.0642 29.1277 24.0647 29.6121 23.7663 29.9113C23.7661 29.9116 23.7655 29.9122 23.7649 29.9127L23.4235 30.2541C23.1569 30.5208 23.1569 30.9532 23.4235 31.2199L31.5716 39.3676C33.7146 41.5303 37.2051 41.546 39.3678 39.403C41.5303 37.26 41.546 33.7694 39.4029 31.607C39.3914 31.5952 39.3796 31.5834 39.3678 31.5716L31.2198 23.4242C30.9531 23.1575 30.5207 23.1575 30.254 23.4242L29.9126 23.7655C29.6128 24.0634 29.129 24.0634 28.8291 23.7655C28.5302 23.4671 28.5293 22.9827 28.8277 22.6838C28.8283 22.6832 28.8289 22.6829 28.8291 22.6824L29.1708 22.3407C29.4375 22.0741 29.4375 21.6416 29.1708 21.375L27.6046 19.8088L31.1858 16.2278C31.7123 16.3365 32.2485 16.3922 32.786 16.3938ZM35.4697 39.6166C34.9735 39.6157 34.4815 39.5261 34.017 39.3516L39.3515 34.017C40.1565 36.1583 39.0733 38.5466 36.9319 39.3516C36.4647 39.5272 35.9693 39.6171 35.4697 39.6166ZM27.7316 21.8647C26.9752 22.767 27.0938 24.1117 27.996 24.8678C28.789 25.5323 29.9447 25.5318 30.7368 24.8658L38.4021 32.5376C38.4852 32.6211 38.5631 32.709 38.6384 32.7984L32.7984 38.6382C32.7087 38.5632 32.6208 38.4853 32.5373 38.4019L24.8661 30.7304C25.6225 29.8282 25.504 28.4834 24.6017 27.7273C23.8088 27.0625 22.6528 27.0634 21.8607 27.729L20.7679 26.6363L26.6386 20.7745L27.7316 21.8647ZM30.4898 14.9951L14.9948 30.4865C14.8248 30.6562 14.7565 30.9026 14.8144 31.1356C15.7515 34.8155 13.5278 38.5584 9.84743 39.4952C6.16736 40.4322 2.42435 38.2086 1.48726 34.5284C0.550451 30.8484 2.77417 27.1055 6.45452 26.1685C7.56779 25.8852 8.73416 25.8852 9.84743 26.1685C10.0804 26.2255 10.3262 26.1572 10.4965 25.9883L25.9878 10.4967C26.1575 10.327 26.2258 10.0806 26.1674 9.84793C25.2367 6.21097 27.4307 2.50826 31.0678 1.57739C31.7551 1.40178 32.4659 1.33434 33.174 1.37846L29.5709 4.98282C29.388 5.16546 29.324 5.43604 29.4057 5.68133L30.7716 9.77965C30.8399 9.98336 31 10.1435 31.204 10.2112L35.3025 11.5773C35.5475 11.6591 35.8181 11.5953 36.001 11.4127L39.6041 7.80973C39.6123 7.9401 39.6165 8.06907 39.6165 8.19748C39.6356 11.9505 36.6088 15.0083 32.8557 15.0277C32.2754 15.0305 31.6972 14.9592 31.1352 14.8153C30.9023 14.7572 30.6558 14.8252 30.4861 14.9949H30.4898V14.9951Z" fill="#FF671F"/>
<path d="M35.3188 34.3522L34.3528 35.3182L27.5226 28.4882L28.4883 27.5222L35.3188 34.3522Z" fill="#FF671F"/>
</svg>
