<svg width="44" height="41" viewBox="0 0 44 41" fill="none" xmlns="http://www.w3.org/2000/svg">
<path d="M43.3555 39.7197H41.0798V31.7818H41.0853C41.4413 31.7818 41.7298 31.4952 41.7298 31.1417V29.0505C41.7298 28.697 41.4413 28.4104 41.0853 28.4104H40.8416V22.4814C40.8417 22.4781 40.8421 22.4748 40.8421 22.4715C40.8421 22.4682 40.8417 22.4649 40.8416 22.4616V20.4803H41.1635C41.5196 20.4803 41.8081 20.1937 41.8081 19.8402V17.749C41.8081 17.3955 41.5196 17.1089 41.1635 17.1089H27.0443C26.6882 17.1089 26.3997 17.3955 26.3997 17.749C26.3997 18.1025 26.6882 18.3891 27.0443 18.3891H40.519V19.2001H3.63748V18.3891H3.65612C3.70434 18.4006 3.75435 18.4072 3.80609 18.4072L24.4661 18.3891C24.8222 18.3891 25.1107 18.1025 25.1107 17.749C25.1107 17.3955 24.8222 17.1089 24.4661 17.1089H19.994L17.0313 9.17519H17.7102C18.0662 9.17519 18.3547 8.88859 18.3547 8.53508V6.44396C18.3547 6.09045 18.0662 5.80385 17.7102 5.80385H14.5724L12.538 0.41539C12.4437 0.165575 12.2032 0 11.9346 0H3.80609C3.45005 0 3.16155 0.286599 3.16155 0.640112V5.80385H2.91474C2.5587 5.80385 2.27021 6.09045 2.27021 6.44396V8.53516C2.27021 8.88867 2.5587 9.17527 2.91474 9.17527H3.16155V17.109H2.99295C2.63699 17.109 2.34841 17.3956 2.34841 17.7491V19.8403C2.34841 20.1938 2.63699 20.4804 2.99295 20.4804H3.16155V28.4105H2.91474C2.5587 28.4105 2.27021 28.6971 2.27021 29.0506V31.1418C2.27021 31.4953 2.5587 31.7819 2.91474 31.7819H3.16155V39.7198H0.644531C0.288492 39.7198 0 40.0064 0 40.3599C0 40.7134 0.288492 41 0.644531 41H43.3555C43.7115 41 44 40.7134 44 40.3599C44 40.0063 43.7115 39.7197 43.3555 39.7197ZM39.7907 39.7197H38.1975V35.9937C38.1975 35.1434 38.894 34.4517 39.7502 34.4517H39.7906V39.7197H39.7907ZM37.96 28.4104V24.6536C37.96 23.8034 38.6565 23.1116 39.5127 23.1116H39.5526V28.4104H37.96ZM34.0406 28.4104H30.9352V24.6536C30.9352 23.8034 31.6317 23.1116 32.4878 23.1116C33.344 23.1116 34.0405 23.8034 34.0405 24.6536V28.4104H34.0406ZM32.4879 21.8314C30.921 21.8314 29.6462 23.0974 29.6462 24.6536V28.4104H27.6467L24.6898 20.4922H39.5526V21.8314H39.5128C37.9458 21.8314 36.671 23.0974 36.671 24.6536V28.4104H35.3298V24.6536C35.3297 23.0974 34.0549 21.8314 32.4879 21.8314ZM13.0683 17.109H9.96299V13.3986C9.96299 12.5483 10.6595 11.8566 11.5156 11.8566C12.3717 11.8566 13.0683 12.5483 13.0683 13.3986L13.0683 17.109ZM17.0657 7.89505H3.55927V7.08407H17.0657V7.89505ZM4.45062 4.05105H8.50446C8.8605 4.05105 9.14899 3.76445 9.14899 3.41094C9.14899 3.05743 8.8605 2.77083 8.50446 2.77083H4.45062V1.28022H11.488L13.1959 5.80385H4.45062V4.05105ZM15.6572 9.17527C15.6587 9.17954 15.6597 9.18389 15.6613 9.18816L18.6191 17.109H14.3574V13.3986C14.3574 11.8424 13.0826 10.5764 11.5157 10.5764C9.94881 10.5764 8.67402 11.8424 8.67402 13.3986V17.109H7.3327V13.3986C7.3327 11.8424 6.05791 10.5764 4.49101 10.5764H4.45062V9.17536H15.6572V9.17527ZM4.45062 11.8565H4.49101C5.34712 11.8565 6.04364 12.5482 6.04364 13.3986V17.1089H4.45062V11.8565ZM23.3105 20.4803L26.2717 28.4104H21.4273V24.6887C21.4273 23.1324 20.1525 21.8664 18.5856 21.8664C17.0186 21.8664 15.7438 23.1324 15.7438 24.6887V28.4104H14.3574V24.6887C14.3574 23.1324 13.0826 21.8664 11.5157 21.8664C9.94881 21.8664 8.67402 23.1324 8.67402 24.6887V28.4104H7.3327V24.6887C7.3327 23.1324 6.05791 21.8664 4.49101 21.8664H4.45062V20.4803H23.3105ZM20.1383 28.4104H17.0329V24.6887C17.0329 23.8384 17.7294 23.1466 18.5856 23.1466C19.4417 23.1466 20.1383 23.8384 20.1383 24.6887V28.4104H20.1383ZM13.0683 28.4104H9.96299V24.6887C9.96299 23.8384 10.6595 23.1466 11.5156 23.1466C12.3717 23.1466 13.0683 23.8384 13.0683 24.6887L13.0683 28.4104ZM4.45062 23.1466H4.49101C5.34712 23.1466 6.04364 23.8384 6.04364 24.6887V28.4104H4.45062V23.1466ZM7.73438 31.7818C8.09041 31.7818 8.37891 31.4952 8.37891 31.1417C8.37891 30.7882 8.09041 30.5016 7.73438 30.5016H3.55927V29.6906H40.4407V30.5016H10.3125C9.95646 30.5016 9.66797 30.7882 9.66797 31.1417C9.66797 31.4952 9.95646 31.7818 10.3125 31.7818H39.7907V33.1715H39.7503C38.1833 33.1715 36.9085 34.4376 36.9085 35.9938V39.7198H35.5673V35.9938C35.5673 34.4376 34.2925 33.1715 32.7256 33.1715C31.1586 33.1715 29.8838 34.4376 29.8838 35.9938V39.7198H28.4974V35.9938C28.4974 34.4376 27.2226 33.1715 25.6557 33.1715C24.0887 33.1715 22.8139 34.4376 22.8139 35.9938V39.7198H21.4275V35.9938C21.4275 34.4376 20.1527 33.1715 18.5858 33.1715C17.0188 33.1715 15.744 34.4376 15.744 35.9938V39.7198H14.3576V35.9938C14.3576 34.4376 13.0828 33.1715 11.5159 33.1715C9.94899 33.1715 8.67419 34.4376 8.67419 35.9938V39.7198H7.3327V35.9938C7.3327 34.4376 6.05791 33.1715 4.49101 33.1715H4.45062V31.7818H7.73438ZM34.2782 39.7197H31.1728V35.9937C31.1728 35.1434 31.8693 34.4517 32.7255 34.4517C33.5816 34.4517 34.2781 35.1434 34.2781 35.9937V39.7197H34.2782ZM27.2082 39.7197H24.1029V35.9937C24.1029 35.1434 24.7994 34.4517 25.6556 34.4517C26.5117 34.4517 27.2082 35.1434 27.2082 35.9937V39.7197ZM20.1383 39.7197H17.0329V35.9937C17.0329 35.1434 17.7294 34.4517 18.5856 34.4517C19.4417 34.4517 20.1383 35.1434 20.1383 35.9937V39.7197H20.1383ZM13.0683 39.7197H9.96299V35.9937C9.96299 35.1434 10.6595 34.4517 11.5156 34.4517C12.3717 34.4517 13.0683 35.1434 13.0683 35.9937L13.0683 39.7197ZM4.45062 34.4517H4.49101C5.34712 34.4517 6.04364 35.1435 6.04364 35.9938V39.7198H4.45062V34.4517Z" fill="#FF671F"/>
</svg>
