<svg width="43" height="41" viewBox="0 0 43 41" fill="none" xmlns="http://www.w3.org/2000/svg">
<path d="M35.2038 35.4407L33.5818 30.6138C33.0149 28.9286 31.5688 27.6847 29.8059 27.3665L25.1234 26.5214V26.1615C25.9383 25.6924 26.6474 25.0649 27.2121 24.322H28.6267C29.7856 24.322 30.7287 23.3867 30.7287 22.2373V13.8983C30.7287 8.91715 26.6425 4.86441 21.6202 4.86441C16.5979 4.86441 12.5116 8.91715 12.5116 13.8983V18.7627C12.5116 20.1025 13.4722 21.2234 14.746 21.4847C15.1391 23.4819 16.3975 25.1719 18.1169 26.1615V26.5214L13.4337 27.3665C11.6715 27.6847 10.2247 28.9286 9.65855 30.6138L9.37829 31.4484L6.99185 29.0815C6.7186 28.8105 6.7186 28.3692 6.99185 28.0982L9.75945 25.354L4.56478 20.2019L1.43705 23.304C0.510779 24.2227 0.000700653 25.4443 0.000700653 26.7438C0.000700653 28.0433 0.510779 29.2643 1.43705 30.1829L10.9064 39.5747C11.8327 40.4934 13.0644 41 14.3747 41C15.6849 41 16.916 40.4934 17.8205 39.5956L21.2334 36.4942L20.1691 35.4407H35.2038ZM29.3274 22.2373C29.3274 22.6209 29.0128 22.9322 28.6267 22.9322H28.0375C28.2407 22.4729 28.3948 21.9885 28.4943 21.4847C28.7942 21.4228 29.0702 21.3047 29.3274 21.156V22.2373ZM28.6267 19.9594V17.5661C29.0436 17.8072 29.3274 18.2506 29.3274 18.7627C29.3274 19.2749 29.0436 19.7182 28.6267 19.9594ZM14.6136 19.9594C14.1967 19.7182 13.9129 19.2749 13.9129 18.7627C13.9129 18.2506 14.1967 17.8072 14.6136 17.5661V19.9594ZM14.6136 15.2881V16.0817C14.3642 16.1464 14.1301 16.2436 13.9129 16.3694V13.8983C13.9129 9.68364 17.3707 6.25424 21.6202 6.25424C25.8696 6.25424 29.3274 9.68364 29.3274 13.8983V16.3694C29.1102 16.2436 28.8762 16.1457 28.6267 16.0817V15.2881H27.9261C25.8542 15.2881 23.9064 14.4876 22.4406 13.0345L21.6202 12.2208L20.7997 13.0345C19.3339 14.4876 17.3861 15.2881 15.3143 15.2881H14.6136ZM16.0149 20.1525V16.6516C18.119 16.4945 20.0808 15.6335 21.6202 14.1818C23.1595 15.6335 25.1213 16.4952 27.2254 16.6516V20.1525C27.2254 21.1657 26.9466 22.1136 26.4673 22.9322H21.6202V24.322H25.3154C24.3275 25.1844 23.0362 25.7119 21.6202 25.7119C18.5296 25.7119 16.0149 23.2178 16.0149 20.1525ZM23.7221 26.7813V26.814L21.6202 28.8987L19.5182 26.814V26.7813C20.1824 26.9884 20.888 27.1017 21.6202 27.1017C22.3523 27.1017 23.0579 26.9884 23.7221 26.7813ZM10.987 31.053C11.3913 29.8494 12.4247 28.9606 13.6838 28.7327L18.5814 27.8501L21.6202 30.864L24.6582 27.8508L29.5551 28.7334C30.8142 28.9613 31.8476 29.8494 32.2519 31.0537L33.2602 34.0508H18.7678L16.0387 31.3442L13.0063 34.0647C12.7421 34.3281 12.2804 34.3281 12.0156 34.0647L10.4853 32.547L10.987 31.053ZM4.56408 22.1671L7.77729 25.354L7.01638 26.1087L3.80316 22.9218L4.56408 22.1671ZM16.8501 38.5935C16.1887 39.2481 15.3086 39.6102 14.3733 39.6102C13.4379 39.6102 12.5579 39.2481 11.8957 38.5921L2.42637 29.201C1.76495 28.545 1.40061 27.6722 1.40061 26.7445C1.40061 25.8161 1.76495 24.9433 2.42637 24.2873L2.81173 23.9051L6.02495 27.092L5.99972 27.117C5.18066 27.93 5.18066 29.2525 5.99972 30.0655L11.0241 35.0487C11.4214 35.4421 11.949 35.6596 12.5109 35.6596C13.0729 35.6596 13.6004 35.4428 13.9718 35.0731L14.0243 35.0265L17.2523 38.228L16.8501 38.5935ZM18.2864 37.2871L15.0655 34.0925L15.9911 33.2628L19.2064 36.4518L18.2864 37.2871Z" fill="#FF671F"/>
<path d="M21.6202 0C12.4654 0 4.57949 6.28064 2.52937 15.0414L1.20163 12.8462L0 13.5613L2.46281 17.6314L6.56655 15.1888L5.84558 13.997L3.9468 15.1269C5.93246 7.11246 13.199 1.38983 21.6202 1.38983C23.4608 1.38983 25.2769 1.66085 27.018 2.19593L27.4328 0.868644C25.5572 0.291864 23.6016 0 21.6202 0Z" fill="#FF671F"/>
<path d="M43 13.3021L38.8963 10.8594L36.4341 14.9303L37.6358 15.6453L38.8619 13.6183C39.5072 15.4911 39.8372 17.45 39.8372 19.4576C39.8372 23.5903 38.3939 27.6305 35.7741 30.8334L36.8622 31.709C39.6845 28.2594 41.2385 23.9079 41.2385 19.4576C41.2385 17.3319 40.8931 15.2562 40.2198 13.2687L42.279 14.4938L43 13.3021Z" fill="#FF671F"/>
</svg>
