<svg width="32" height="41" viewBox="0 0 32 41" fill="none" xmlns="http://www.w3.org/2000/svg">
<path d="M26.6621 15.2942C26.6621 9.3847 21.879 4.57687 16 4.57687C10.1206 4.57687 5.3376 9.3847 5.3376 15.2942C5.3376 21.2041 10.1206 26.0119 16 26.0119C21.879 26.0119 26.6621 21.2041 26.6621 15.2942ZM16 24.8107C10.7797 24.8107 6.53258 20.5416 6.53258 15.2942C6.53258 10.0472 10.7797 5.77805 16 5.77805C21.2203 5.77805 25.4671 10.0472 25.4671 15.2942C25.4671 20.5416 21.2203 24.8107 16 24.8107Z" fill="#FF671F"/>
<path d="M23.4254 12.9447C23.3127 12.5957 22.9919 12.3614 22.6268 12.3614H18.1743L16.7985 8.10501C16.6856 7.75623 16.3647 7.52194 16 7.52194C15.6353 7.52194 15.3144 7.75623 15.2015 8.10501L13.8257 12.3617H9.37315C9.00812 12.3617 8.68728 12.596 8.57463 12.9447C8.46198 13.2935 8.58458 13.6726 8.8796 13.8882L12.4817 16.5189L11.1059 20.7752C10.9932 21.124 11.1155 21.5034 11.4108 21.719C11.7058 21.9345 12.1026 21.9345 12.3979 21.719L16 19.0883L19.6021 21.719C19.7499 21.8269 19.9226 21.8807 20.0956 21.8807C20.2686 21.8807 20.4417 21.8269 20.5892 21.719C20.8845 21.5034 21.0068 21.124 20.8941 20.7752L19.518 16.5189L23.1201 13.8882C23.4154 13.6726 23.538 13.2935 23.4254 12.9447ZM18.6069 15.6996C18.3118 15.9152 18.1892 16.2943 18.3019 16.6434L19.4194 20.1008L16.4935 17.964C16.3457 17.8561 16.173 17.8023 16 17.8023C15.827 17.8023 15.654 17.8561 15.5064 17.964L12.5806 20.1008L13.6981 16.6431C13.8108 16.2943 13.6881 15.9152 13.3931 15.6996L10.467 13.5625H14.084C14.4487 13.5625 14.7695 13.3282 14.8825 12.9795L16 9.52171L17.1175 12.9795C17.2305 13.3282 17.5513 13.5625 17.916 13.5625H21.533L18.6069 15.6996Z" fill="#FF671F"/>
<path d="M31.8774 35.1634L26.275 25.2768L27.2565 24.9602C28.4391 24.5793 29.2195 23.4425 29.1548 22.196L29.0804 20.7643C29.0577 20.331 29.2183 19.905 29.5211 19.5956L30.5216 18.5737C31.3923 17.6838 31.5578 16.3127 30.9243 15.2392L30.1964 14.0064C29.9761 13.6332 29.9216 13.1809 30.0464 12.7655L30.4596 11.3932C30.8194 10.1986 30.3321 8.90736 29.2749 8.25297L28.0603 7.50098C27.6928 7.27357 27.4352 6.89883 27.3539 6.47248L27.0854 5.06454C26.8517 3.83865 25.8232 2.92275 24.5843 2.83705L23.1612 2.73882C22.7306 2.70911 22.3294 2.49734 22.0606 2.15794L21.1715 1.03653C20.3979 0.0605802 19.0635 -0.269743 17.9273 0.232936L16.6218 0.810689C16.6218 0.810689 16.6218 0.810689 16.6215 0.810689C16.2266 0.985548 15.7735 0.985548 15.3783 0.810689L14.0729 0.232936C12.9364 -0.269743 11.6023 0.0605802 10.8284 1.03685L9.9396 2.15794C9.67073 2.49734 9.2696 2.70911 8.83891 2.73882L7.41582 2.83705C6.17696 2.92275 5.14847 3.83865 4.91477 5.06454L4.64621 6.47248C4.56467 6.89852 4.30732 7.27357 3.9398 7.50098L2.72521 8.25266C1.66809 8.90705 1.18077 10.1986 1.5405 11.3932L1.95346 12.7655C2.07856 13.1809 2.0241 13.6329 1.80377 14.0061L1.07589 15.2392C0.442305 16.3124 0.607859 17.6838 1.47858 18.5734L2.47906 19.5956C2.78154 19.905 2.94243 20.3307 2.91971 20.764L2.84534 22.196C2.78061 23.4422 3.56108 24.5789 4.7433 24.9602L5.72511 25.2765L0.12271 35.1634C-0.0465791 35.4621 -0.0403553 35.8293 0.139203 36.1221C0.318761 36.4149 0.643957 36.5863 0.984091 36.5675L5.66661 36.3239L7.84651 40.497C8.00553 40.8011 8.31673 40.9941 8.65873 40.9997C8.66402 40.9997 8.66931 41 8.6746 41C9.01037 41 9.32094 40.8192 9.48743 40.5252L15.1888 30.4634C15.4527 30.5457 15.7262 30.5886 16.0001 30.5886C16.2739 30.5886 16.5472 30.5457 16.8114 30.4634L22.5127 40.5252C22.6792 40.8192 22.9895 41 23.3252 41C23.3305 41 23.3361 41 23.3414 40.9997C23.6834 40.9941 23.9946 40.8014 24.1536 40.497L26.3332 36.3239L31.0161 36.5675C31.359 36.5857 31.6814 36.4146 31.8606 36.1221C32.0402 35.8293 32.0467 35.4621 31.8774 35.1634ZM8.68393 39.5164L6.69852 35.7158L7.87079 33.6475C8.03416 33.3591 7.93427 32.9925 7.64735 32.8283C7.36105 32.6643 6.99602 32.7648 6.83265 33.0529L5.66038 35.1214L1.3958 35.3435L6.78006 25.842C6.88151 25.9562 6.96739 26.0854 7.03212 26.2268L7.62837 27.5296C7.93769 28.2056 8.49535 28.7067 9.15415 28.9554L8.22057 30.6033C8.05719 30.8914 8.1574 31.2583 8.444 31.4225C8.53736 31.4757 8.63912 31.501 8.73933 31.501C8.94689 31.501 9.14886 31.3922 9.25902 31.1976L10.4412 29.1115C10.4898 29.1056 10.5383 29.099 10.5869 29.0902L11.9922 28.8434C12.417 28.7687 12.857 28.8778 13.199 29.1425L14.1466 29.876L8.68393 39.5164ZM16.7768 29.1756C16.7746 29.1769 16.7728 29.1775 16.7709 29.1788C16.7678 29.1806 16.7647 29.1828 16.7616 29.1847C16.2901 29.454 15.71 29.454 15.2386 29.1847C15.2355 29.1828 15.2327 29.1806 15.2292 29.1788C15.2274 29.1775 15.2255 29.1769 15.2236 29.1756C15.167 29.1425 15.1116 29.1068 15.0587 29.0658L13.9285 28.1909C13.447 27.818 12.8561 27.6191 12.2555 27.6191C12.0993 27.6191 11.9424 27.6329 11.7865 27.6601L10.3812 27.9069C10.2906 27.9228 10.2001 27.93 10.1104 27.9297C10.103 27.9294 10.0958 27.9291 10.0887 27.9291C9.50517 27.9188 8.96494 27.5756 8.71412 27.0273L8.11787 25.7247C7.86301 25.1676 7.42889 24.715 6.89458 24.4347C6.89333 24.4341 6.8924 24.4332 6.89115 24.4325C6.88773 24.4307 6.88431 24.4291 6.88119 24.4275C6.86843 24.421 6.85568 24.4144 6.84292 24.4081C6.83981 24.4066 6.83732 24.4053 6.8342 24.4041C6.71595 24.3456 6.59334 24.2952 6.46669 24.2542L5.10833 23.8166C4.44206 23.6017 4.00204 22.9611 4.03876 22.2589L4.11313 20.8268C4.15297 20.058 3.86791 19.3022 3.3308 18.7536L2.33062 17.7313C1.83987 17.2299 1.74651 16.4572 2.10345 15.8523L2.83133 14.6192C3.22219 13.957 3.31928 13.1546 3.0974 12.4177L2.68414 11.0454C2.48124 10.3722 2.75602 9.64433 3.35196 9.27584L4.56654 8.52386C5.2188 8.12003 5.67563 7.455 5.81972 6.69864L6.08827 5.2907C6.21991 4.60002 6.79966 4.08389 7.49767 4.03541L8.92075 3.93718C9.68473 3.88432 10.3967 3.50864 10.8741 2.90649L11.7629 1.78539C12.1992 1.23517 12.951 1.04905 13.5914 1.33245L14.8966 1.90989C15.5977 2.22019 16.4021 2.22019 17.1029 1.90989L18.4084 1.33245C19.0491 1.04905 19.8007 1.23517 20.2367 1.78539L21.1257 2.9068C21.6028 3.50895 22.3151 3.88432 23.0791 3.93718L24.5022 4.03572C25.2002 4.08389 25.7799 4.60002 25.9116 5.2907L26.1801 6.69895C26.3245 7.455 26.7813 8.12034 27.4333 8.52386L28.6479 9.27584C29.2438 9.64464 29.5186 10.3722 29.3157 11.0454L28.9024 12.418C28.6806 13.1546 28.7776 13.957 29.1685 14.6195L29.8964 15.8523C30.2533 16.4572 30.1603 17.2299 29.6692 17.7313L28.669 18.7536C28.1319 19.3022 27.8469 20.058 27.8867 20.8271L27.9611 22.2589C27.9978 22.9611 27.5578 23.6017 26.8915 23.8166L25.5332 24.2542C25.4065 24.2952 25.2839 24.3456 25.1656 24.4038C25.1625 24.4053 25.1597 24.4066 25.1569 24.4078C25.1442 24.4144 25.1311 24.421 25.1183 24.4275C25.1152 24.4294 25.1118 24.4307 25.1087 24.4325C25.1074 24.4332 25.1065 24.4338 25.1056 24.4344C24.5709 24.7147 24.1368 25.1676 23.882 25.7247L23.2857 27.0276C23.0352 27.5753 22.4956 27.9185 21.9124 27.9291C21.904 27.9291 21.8953 27.9294 21.8869 27.93C21.7979 27.93 21.7083 27.9228 21.6183 27.9069L20.2133 27.6601C19.4587 27.5274 18.6779 27.7211 18.0711 28.1909L16.9411 29.0658C16.8885 29.1068 16.8331 29.1425 16.7768 29.1756ZM26.3398 35.1214L25.1579 33.036C24.9945 32.7476 24.6294 32.6471 24.3432 32.8114C24.0562 32.9756 23.9563 33.3422 24.1197 33.6306L25.3013 35.7158L23.3162 39.5164L17.8535 29.876L18.8008 29.1425C19.1428 28.8778 19.5828 28.7687 20.0079 28.8434L21.413 29.0902C21.4615 29.099 21.5104 29.1056 21.5589 29.1115L22.7405 31.197C22.8507 31.3912 23.0526 31.5004 23.2602 31.5004C23.3604 31.5004 23.4622 31.4751 23.5555 31.4216C23.8421 31.2573 23.942 30.8907 23.779 30.6023L22.8457 28.9554C23.5045 28.7064 24.0621 28.2056 24.3715 27.5296L24.9677 26.2268C25.0324 26.0854 25.1183 25.9562 25.2198 25.842L30.604 35.3435L26.3398 35.1214Z" fill="#FF671F"/>
</svg>
