<svg width="40" height="40" viewBox="0 0 40 40" fill="none" xmlns="http://www.w3.org/2000/svg">
<path d="M38.0001 33.2C34.0212 31.09 30.9691 29.9069 28.2522 29.4533L28.5334 29.0667C28.6668 28.9334 28.7334 28.7334 28.6668 28.5334L28.042 26.0344C28.2684 25.7143 28.482 25.3834 28.6821 25.0431C31.1665 24.1976 32.4228 22.7683 32.6339 20.6639C33.7251 20.607 34.6667 19.633 34.6667 18.5334V13.5334C34.6667 12.4387 33.7958 11.4686 32.655 11.4037C32.5082 7.55242 30.8101 0 20 0C9.18978 0 7.49181 7.55273 7.34501 11.4039C6.26275 11.4678 5.33337 12.3765 5.33337 13.5333V18.5333C5.33337 19.6666 6.33337 20.6666 7.53337 20.6666H8.53338C8.90088 20.6666 9.25408 20.561 9.56174 20.3802C9.93979 22.3869 10.7741 24.3605 11.9581 26.0343L11.3334 28.5333C11.3334 28.6666 11.3334 28.8666 11.4667 29.0666L11.7479 29.4532C9.03103 29.9069 5.979 31.0899 2.00008 33.1999C0.733361 33.8 0 35.0666 0 36.4666V39.3333C0 39.7334 0.266641 40 0.666642 40H39.3334C39.7334 40 40 39.7334 40 39.3334V36.4667C40.0001 35.1334 39.2001 33.8666 38.0001 33.2ZM20.0037 31.6751L21.6 35.3334H18.3778L20.0037 31.6751ZM17.8934 36.6666H22.1041L22.4943 38.6666H17.4933L17.8934 36.6666ZM27.0001 27.3334L27.2667 28.5334L26.5857 29.4684C26.5422 29.504 26.502 29.547 26.4667 29.6L23.6936 33.4396L22.8138 34.6477L21.0165 30.6039C23.2086 30.3366 25.1606 29.2194 26.7257 27.6186C26.8182 27.5253 26.9097 27.4305 27.0001 27.3334ZM29.6033 23.1862C29.9793 22.2713 30.2627 21.3203 30.4419 20.3617C30.6958 20.5155 30.9848 20.6182 31.2963 20.653C31.1808 21.5954 30.7621 22.4851 29.6033 23.1862ZM33.2667 13.4666V18.4666C33.2667 18.8666 32.9333 19.2666 32.4667 19.2666H31.4667C31.0667 19.2666 30.6667 18.9333 30.6667 18.4666V13.4666C30.6667 13.0666 31.0001 12.6666 31.4667 12.6666H32.4667C32.8667 12.6666 33.2667 13 33.2667 13.4666ZM20 1.33336C24.1092 1.33336 31.0249 2.67477 31.3223 11.4109C31.0429 11.4395 30.7753 11.5245 30.5333 11.6549C29.722 6.57828 25.2959 2.66664 20 2.66664C14.7049 2.66664 10.2792 6.57719 9.46713 11.6527C9.22869 11.524 8.96244 11.4389 8.67775 11.4106C8.97525 2.67477 15.891 1.33336 20 1.33336ZM9.26666 18.4666C9.26666 18.8666 8.9333 19.2666 8.46666 19.2666H7.46666C7.06665 19.2666 6.66665 18.9333 6.66665 18.4666V13.4666C6.66665 13.0666 7.00001 12.6666 7.46666 12.6666H8.46666C8.86666 12.6666 9.26666 13 9.26666 13.4666V18.4666ZM10.6667 13.3334C10.6667 8.2 14.8667 4 20 4C25.1334 4 29.3334 8.2 29.3334 13.3334V18C29.3334 20.2056 28.7592 22.2249 27.8283 23.9287C26.237 24.3902 23.9479 24.6666 20.6668 24.6666C20.2668 24.6666 20.0001 24.9333 20.0001 25.3333C20.0001 25.7333 20.2668 25.9999 20.6668 25.9999C23.0687 25.9999 25.0776 25.8524 26.7226 25.5441C26.6818 25.5849 26.6409 25.6258 26.6001 25.6666C26.2647 26.1138 25.9107 26.5216 25.5408 26.8892C23.9711 28.3516 22.0988 29.2375 20.2946 29.3252C20.2038 29.2863 20.102 29.2666 20 29.2666C19.8975 29.2666 19.8052 29.2867 19.7224 29.3261C18.618 29.2755 17.4878 28.9254 16.4164 28.3266C15.331 27.703 14.31 26.8041 13.4 25.6666C13.3334 25.6 13.2667 25.5333 13.2 25.4666L13.1611 25.4537C11.6639 23.4901 10.6667 20.9069 10.6667 18V13.3334ZM18.9835 30.6039L17.1862 34.6477L16.3064 33.4396L13.5333 29.6C13.5121 29.5788 13.4886 29.5577 13.4642 29.537L12.7333 28.5334L12.9999 27.3334C13.0902 27.4305 13.1817 27.5252 13.2741 27.6184C14.8392 29.2192 16.7914 30.3365 18.9835 30.6039ZM1.33336 36.4666C1.33336 35.6 1.8 34.8 2.60001 34.4C6.84947 32.1425 9.90846 31.0095 12.6335 30.671L16.6118 36.1412L16.1067 38.6666H1.33336V36.4666ZM38.6667 38.6666H23.8934L23.3883 36.1412L27.4097 30.6117C30.1251 31.0215 33.2391 32.1537 37.4002 34.3333C38.2002 34.7999 38.6668 35.5999 38.6668 36.4666L38.6667 38.6666Z" fill="#FF671F"/>
</svg>
