<?xml version="1.0" encoding="utf-8"?><svg viewBox="0 0 104 51" xmlns="http://www.w3.org/2000/svg" xmlns:xlink="http://www.w3.org/1999/xlink"><style>:root>svg{display:none}:root>svg:target{display:block}</style><svg fill="none" viewBox="0 0 7 10" id="arrow-left" xmlns="http://www.w3.org/2000/svg"><path d="M5.714 1L2.286 5l3.428 4" stroke="#FF671F" stroke-width="2"/></svg><svg fill="none" viewBox="0 0 7 10" id="arrow-right" xmlns="http://www.w3.org/2000/svg"><path d="M1.286 1l3.428 4-3.428 4" stroke="#FF671F" stroke-width="2"/></svg><svg fill="none" viewBox="0 0 20 18" id="cart" xmlns="http://www.w3.org/2000/svg"><path d="M15.835 13.095c-1.375 0-2.493 1.1-2.493 2.453C13.342 16.9 14.46 18 15.835 18c1.376 0 2.494-1.1 2.494-2.452 0-1.353-1.118-2.453-2.494-2.453zm0 3.434a.99.99 0 01-.997-.981.99.99 0 01.998-.981c.55 0 .997.44.997.98a.99.99 0 01-.997.982zM19.841 3.617a.752.752 0 00-.589-.282H4.618L3.945.565A.746.746 0 003.217 0H.748A.742.742 0 000 .736c0 .406.335.735.748.735h1.878l2.432 10.005c.08.331.381.565.728.565h11.646c.344 0 .643-.23.726-.56l1.82-7.233a.727.727 0 00-.137-.63zm-2.995 6.952H6.376l-1.4-5.762h13.32l-1.45 5.762zM6.783 13.095c-1.375 0-2.494 1.1-2.494 2.453C4.29 16.9 5.408 18 6.783 18c1.375 0 2.494-1.1 2.494-2.452 0-1.353-1.119-2.453-2.494-2.453zm0 3.434a.99.99 0 01-.997-.981.99.99 0 01.997-.981c.55 0 .998.44.998.98a.99.99 0 01-.998.982z" fill="#FF671F"/></svg><svg fill="none" viewBox="0 0 26 24" id="cart-black" xmlns="http://www.w3.org/2000/svg"><path d="M20.586 17.46c-1.787 0-3.242 1.467-3.242 3.27S18.8 24 20.586 24c1.788 0 3.242-1.467 3.242-3.27s-1.454-3.27-3.242-3.27zm0 4.578a1.304 1.304 0 01-1.297-1.308c0-.721.582-1.308 1.297-1.308s1.297.587 1.297 1.308c0 .722-.582 1.308-1.297 1.308zM25.793 4.823a.968.968 0 00-.765-.376H6.003L5.128.753A.975.975 0 004.182 0H.972A.977.977 0 000 .98c0 .543.435.982.973.982h2.441l3.161 13.34a.974.974 0 00.946.752h15.14a.974.974 0 00.944-.745l2.367-9.646a.989.989 0 00-.179-.84zm-3.893 9.27H8.29l-1.82-7.684h17.316L21.9 14.092zM8.818 17.46c-1.788 0-3.242 1.467-3.242 3.27S7.03 24 8.818 24s3.242-1.467 3.242-3.27-1.454-3.27-3.242-3.27zm0 4.578a1.304 1.304 0 01-1.297-1.308c0-.721.582-1.308 1.297-1.308s1.297.587 1.297 1.308c0 .722-.582 1.308-1.297 1.308z" fill="#000"/></svg><svg fill="none" viewBox="0 0 10 10" id="cart-close" xmlns="http://www.w3.org/2000/svg"><path fill="#EB0E0E" d="M.133.533L.666 0 10 9.334l-.533.533z"/><path fill="#EB0E0E" d="M9.334.133l.533.534L.533 10 0 9.467z"/></svg><svg fill="none" viewBox="0 0 51 51" id="ellipse-btn" xmlns="http://www.w3.org/2000/svg"><circle cx="25.5" cy="25.5" r="25" stroke="#FF671F"/></svg><svg fill="none" viewBox="0 0 13 23" id="facebook" xmlns="http://www.w3.org/2000/svg"><path d="M8.439 23V12.51h3.831l.575-4.09H8.439V5.81c0-1.184.356-1.991 2.206-1.991L13 3.818V.16C12.593.111 11.195 0 9.567 0 6.17 0 3.843 1.906 3.843 5.404V8.42H0v4.09h3.843V23h4.596z" fill="#fff"/></svg><svg fill="none" viewBox="0 0 24 31" id="fire" xmlns="http://www.w3.org/2000/svg"><path d="M12.641 30.941a9.941 9.941 0 01-3.431-.597c-3.942-1.445-6.572-3.72-7.815-6.763-2.041-4.995.382-10.2.486-10.42a.442.442 0 01.825.072 5.823 5.823 0 001.813 2.58C5.53 10.733 9.96 7.66 10.157 7.525c2.858-2.288.524-6.834.5-6.88a.442.442 0 01.67-.548c7.871 6.388 7.418 12.821 6.783 15.465a4.289 4.289 0 001.604-3.967.442.442 0 01.803-.31 20.03 20.03 0 012.067 4.254 12.081 12.081 0 01-2.075 11.656l-.094.115a10.034 10.034 0 01-7.774 3.63zm-3.127-1.427a9.057 9.057 0 003.127.543 9.153 9.153 0 007.09-3.308l.089-.11a11.201 11.201 0 001.927-10.806 20.03 20.03 0 00-1.188-2.718c-.486 2.66-3.031 3.896-3.062 3.91a.442.442 0 01-.589-.587c.14-.3 3.183-7.117-4.827-14.518.511 1.772.817 4.542-1.402 6.316-.073.053-4.768 3.318-5.409 8.443a.442.442 0 01-.687.31 8.204 8.204 0 01-2.286-2.466c-.58 1.698-1.476 5.323-.082 8.727 1.147 2.8 3.602 4.907 7.299 6.262v.002z" fill="#000"/><path d="M10.758 30.761a.442.442 0 01-.285-.104C4.84 25.91 8.809 19.837 8.849 19.776a.441.441 0 01.809.218c.011.678.254 1.332.69 1.853a8.983 8.983 0 013.896-8.685.442.442 0 01.615.584 3.07 3.07 0 00-.356 1.496c.023.606.215 1.194.555 1.696l.177.27c.586.87 1.22 1.706 1.9 2.503.53.641.954 1.362 1.256 2.137 2.215 4.567-1.591 8.168-1.629 8.204a.442.442 0 01-.6-.648c.137-.13 3.37-3.21 1.424-7.19a6.952 6.952 0 00-1.13-1.938 28.531 28.531 0 01-1.962-2.584l-.177-.27a4.13 4.13 0 01-.699-2.161 3.968 3.968 0 01.023-.516c-1.273 1.204-3.138 3.766-2.259 7.957a.442.442 0 01-.56.514 3.018 3.018 0 01-1.795-1.895c-.785 1.786-1.724 5.508 2.015 8.661a.442.442 0 01-.285.78z" fill="#000"/></svg><svg fill="none" viewBox="0 0 17 12" id="hamburger" xmlns="http://www.w3.org/2000/svg"><path d="M0 0h16.306v1.418H0V0zM0 4.963h16.306V6.38H0V4.963zM0 9.925h16.306v1.418H0V9.925z" fill="#fff"/></svg><svg fill="none" viewBox="0 0 23 23" id="in" xmlns="http://www.w3.org/2000/svg"><path d="M5.143 7.188H0V23h5.143V7.187zM19.153 7.373c-.054-.017-.106-.036-.164-.052a3.329 3.329 0 00-.208-.04 4.609 4.609 0 00-.923-.093c-2.999 0-4.9 2.18-5.527 3.023V7.187H7.188V23h5.143v-8.625s3.887-5.414 5.527-1.438V23H23V12.33c0-2.39-1.637-4.38-3.847-4.957zM2.516 5.031a2.516 2.516 0 100-5.031 2.516 2.516 0 000 5.031z" fill="#fff"/></svg><svg fill="none" viewBox="0 0 104 48" id="logo-footer" xmlns="http://www.w3.org/2000/svg"><path d="M3.504 42.192h-1.44V45h-.852v-6.312h.852v2.772h1.452l2.22-2.772h.924l-2.484 3.06L6.84 45H5.832l-2.328-2.808zm6.736-3.552c.823 0 1.455.208 1.896.624.44.408.66 1.016.66 1.824V45h-.816v-.984a1.947 1.947 0 01-.853.768c-.368.184-.808.276-1.32.276-.704 0-1.264-.168-1.68-.504-.416-.336-.624-.78-.624-1.332 0-.536.192-.968.576-1.296.392-.328 1.012-.492 1.86-.492h2.005v-.384c0-.544-.153-.956-.457-1.236-.303-.288-.748-.432-1.332-.432-.4 0-.784.068-1.152.204a2.822 2.822 0 00-.948.54l-.384-.636c.32-.272.704-.48 1.152-.624.448-.152.92-.228 1.416-.228zm-.3 5.748c.48 0 .892-.108 1.236-.324.344-.224.6-.544.768-.96v-1.032h-1.98c-1.08 0-1.62.376-1.62 1.128 0 .368.14.66.42.876.28.208.671.312 1.175.312zm9.144-2.652c.856.2 1.284.716 1.284 1.548 0 .552-.204.976-.612 1.272-.408.296-1.016.444-1.824.444h-2.868v-6.312h2.784c.72 0 1.284.14 1.692.42.408.28.612.68.612 1.2 0 .344-.096.64-.288.888-.184.24-.444.42-.78.54zm-3.192-.24h1.896c.488 0 .86-.092 1.116-.276.264-.184.396-.452.396-.804 0-.352-.132-.616-.396-.792-.256-.176-.628-.264-1.116-.264h-1.896v2.136zm2.004 2.832c.544 0 .952-.088 1.224-.264.272-.176.408-.452.408-.828 0-.376-.124-.652-.372-.828-.248-.184-.64-.276-1.176-.276h-2.088v2.196h2.004zm6.64-5.688c.824 0 1.456.208 1.896.624.44.408.66 1.016.66 1.824V45h-.816v-.984a1.947 1.947 0 01-.852.768c-.368.184-.808.276-1.32.276-.704 0-1.264-.168-1.68-.504-.416-.336-.624-.78-.624-1.332 0-.536.192-.968.576-1.296.392-.328 1.012-.492 1.86-.492h2.004v-.384c0-.544-.152-.956-.456-1.236-.304-.288-.748-.432-1.332-.432-.4 0-.784.068-1.152.204a2.822 2.822 0 00-.948.54l-.384-.636c.32-.272.704-.48 1.152-.624.448-.152.92-.228 1.416-.228zm-.3 5.748c.48 0 .892-.108 1.236-.324.344-.224.6-.544.768-.96v-1.032h-1.98c-1.08 0-1.62.376-1.62 1.128 0 .368.14.66.42.876.28.208.672.312 1.176.312zm14.421-.132v2.268h-.804V45h-5.652v1.524h-.804v-2.268h.36c.424-.024.712-.336.864-.936.152-.6.256-1.44.312-2.52l.084-2.112h4.656v5.568h.984zm-4.944-3.408c-.04.896-.116 1.636-.228 2.22-.112.576-.312.972-.6 1.188h3.936v-4.812h-3.036l-.072 1.404zm11.764-2.16V45h-.851v-5.556h-3.024l-.084 1.56c-.065 1.312-.217 2.32-.456 3.024-.24.704-.668 1.056-1.284 1.056-.169 0-.372-.032-.612-.096l.06-.732c.144.032.243.048.3.048.327 0 .575-.152.743-.456.169-.304.28-.68.337-1.128a26.6 26.6 0 00.143-1.776l.108-2.256h4.62zm7.27 0V45h-.78v-2.088H49.748L48.284 45h-.924l1.572-2.208c-.487-.136-.863-.368-1.127-.696-.265-.328-.397-.744-.397-1.248 0-.704.24-1.24.72-1.608.48-.368 1.136-.552 1.968-.552h2.653zm-4.475 2.184c0 .936.596 1.404 1.788 1.404h1.907v-2.832H50.12c-1.232 0-1.848.476-1.848 1.428zm13.105-2.028c.584 0 1.104.132 1.56.396.465.256.825.62 1.08 1.092.257.464.385.996.385 1.596 0 .616-.136 1.164-.409 1.644-.264.472-.636.84-1.116 1.104-.48.264-1.032.396-1.656.396-1.047 0-1.86-.368-2.435-1.104-.577-.736-.864-1.752-.864-3.048 0-1.352.256-2.388.768-3.108.52-.72 1.328-1.208 2.424-1.464l2.832-.648.144.78-2.665.612c-.903.2-1.567.556-1.991 1.068-.424.504-.656 1.252-.697 2.244a2.825 2.825 0 011.069-1.14c.456-.28.98-.42 1.572-.42zm-.132 5.52c.44 0 .833-.1 1.177-.3.352-.208.623-.496.816-.864.2-.368.3-.784.3-1.248 0-.464-.096-.872-.288-1.224a2.004 2.004 0 00-.816-.816c-.344-.2-.74-.3-1.188-.3-.449 0-.849.1-1.2.3a2.105 2.105 0 00-.816.816c-.192.352-.288.76-.288 1.224 0 .464.096.88.288 1.248.2.368.476.656.828.864.352.2.748.3 1.188.3zm4.983-5.676h.852V45h-.852v-6.312zm.432-1.38a.603.603 0 01-.444-.18.59.59 0 01-.18-.432c0-.16.06-.3.18-.42s.268-.18.444-.18.324.06.444.18c.12.112.18.248.18.408 0 .176-.06.324-.18.444a.603.603 0 01-.444.18zm5.792 4.404c.448.104.792.284 1.032.54.248.256.372.568.372.936 0 .368-.128.696-.384.984-.248.288-.588.512-1.02.672a4.277 4.277 0 01-1.428.228c-.456 0-.904-.064-1.344-.192a3.56 3.56 0 01-1.152-.588l.288-.636c.288.216.624.384 1.008.504s.772.18 1.164.18c.584 0 1.06-.108 1.428-.324.376-.224.564-.524.564-.9 0-.336-.152-.596-.456-.78-.304-.192-.72-.288-1.248-.288h-1.08v-.624h1.032c.472 0 .852-.088 1.14-.264.288-.184.432-.428.432-.732 0-.336-.164-.6-.492-.792-.32-.192-.74-.288-1.26-.288-.68 0-1.352.172-2.016.516l-.24-.66a5 5 0 012.34-.588c.48 0 .912.072 1.296.216.392.136.696.332.912.588.224.256.336.552.336.888 0 .32-.112.604-.336.852-.216.248-.512.432-.888.552zm3.338-3.024h.852v2.796h3.972v-2.796h.852V45h-.852v-2.784h-3.972V45h-.852v-6.312zm13.618 3.42h-5.28c.048.656.3 1.188.756 1.596.456.4 1.032.6 1.728.6.392 0 .752-.068 1.08-.204.328-.144.612-.352.852-.624l.48.552c-.28.336-.632.592-1.056.768a3.507 3.507 0 01-1.38.264c-.648 0-1.224-.136-1.728-.408a3.038 3.038 0 01-1.164-1.152 3.267 3.267 0 01-.42-1.656c0-.616.132-1.168.396-1.656.272-.488.64-.868 1.104-1.14.472-.272 1-.408 1.584-.408a3.05 3.05 0 011.572.408c.464.272.828.652 1.092 1.14.264.48.396 1.032.396 1.656l-.012.264zm-3.048-2.736c-.608 0-1.12.196-1.536.588-.408.384-.64.888-.696 1.512h4.476c-.056-.624-.292-1.128-.708-1.512-.408-.392-.92-.588-1.536-.588zm7.586 5.688a3.436 3.436 0 01-1.68-.408 2.976 2.976 0 01-1.152-1.14 3.333 3.333 0 01-.42-1.668c0-.616.14-1.168.42-1.656.28-.488.664-.868 1.152-1.14a3.436 3.436 0 011.68-.408c.544 0 1.028.108 1.452.324.432.208.772.516 1.02.924l-.636.432a1.945 1.945 0 00-.792-.696c-.32-.16-.668-.24-1.044-.24-.456 0-.868.104-1.236.312-.36.2-.644.488-.852.864-.2.376-.3.804-.3 1.284 0 .488.1.92.3 1.296.208.368.492.656.852.864.368.2.78.3 1.236.3.376 0 .724-.076 1.044-.228.32-.152.584-.384.792-.696l.636.432c-.248.408-.588.72-1.02.936a3.304 3.304 0 01-1.452.312zm9.392-6.372l-3.156 7.068c-.256.592-.552 1.012-.888 1.26-.336.248-.74.372-1.212.372-.304 0-.588-.048-.852-.144a1.846 1.846 0 01-.684-.432l.396-.636c.32.32.704.48 1.152.48.288 0 .532-.08.732-.24.208-.16.4-.432.576-.816l.276-.612-2.82-6.3h.888l2.376 5.364 2.376-5.364h.84z" fill="#fff"/><path d="M38.62 11.508h-6.096V5.709h6.096v5.799z" fill="#FF671F"/><path d="M32.527 29.024h6.09V11.508h-6.084M68.835 17.02a7.682 7.682 0 00-1.02-1.445l-.947-1.034c-.02-.02-.02-.053 0-.066l.92-1.007c.398-.43.743-.908 1.02-1.43a7.955 7.955 0 00.663-1.637 6.33 6.33 0 00.233-1.656 8.036 8.036 0 00-.722-3.366 8.977 8.977 0 00-1.962-2.756A9.33 9.33 0 0064.12.755c-1.1-.458-2.286-.683-3.545-.683H42.712v28.932h17.862c1.259 0 2.444-.225 3.545-.683a9.33 9.33 0 002.901-1.868 8.977 8.977 0 001.962-2.756 8.036 8.036 0 00.722-3.366c0-.542-.073-1.093-.225-1.669a7.422 7.422 0 00-.644-1.643zm-5.46 4.438c-.151.351-.37.655-.642.921a3.255 3.255 0 01-.967.616 3.23 3.23 0 01-1.192.219H48.8v-5.77h11.773c.424 0 .821.072 1.192.218.365.152.689.357.967.616.272.265.49.57.643.92.16.352.232.73.232 1.133 0 .398-.073.776-.232 1.127zm0-11.574c-.151.357-.37.669-.642.933a3.117 3.117 0 01-.967.61 3.11 3.11 0 01-1.192.225H48.8v-5.79h11.773c.424 0 .821.073 1.192.219.365.152.689.357.967.615.272.265.49.57.643.921.16.352.232.723.232 1.127s-.073.789-.232 1.14zM100.494 25.387h-.006L90.795 2.92 89.59.032h-6.916l-.371.815-.014.02-.252.543L80.93 3.82l-10.322 22.85-.16.345-.913 1.995 6.698.006h.092l.742-1.948.02-.053 1.484-3.75h14.383l1.014 2.498.298.755.98 2.458 6.706.04h.126l-1.584-3.63zM85.601 5.868h.582l4.552 11.588h-9.838L85.6 5.868z" fill="#fff"/><path d="M11.545 0C10.09 0 8.725.23 7.45.687c-1.275.458-2.39 1.08-3.347 1.87a8.991 8.991 0 00-2.268 2.758A7.092 7.092 0 001 8.688a7.17 7.17 0 00.834 3.384 8.981 8.981 0 002.268 2.768c.956.788 2.072 1.412 3.346 1.868 1.276.458 2.64.687 4.095.687h7.038c.49 0 .948.075 1.374.222.424.15.796.354 1.115.617.32.262.568.57.748.92.18.35.27.726.27 1.13 0 .405-.09.781-.27 1.132-.18.35-.429.656-.748.918-.319.264-.69.469-1.115.617a4.147 4.147 0 01-1.374.222H2.963v5.8h15.62c1.454 0 2.823-.23 4.107-.688 1.283-.457 2.403-1.08 3.36-1.87a8.845 8.845 0 002.255-2.757 7.194 7.194 0 00.821-3.374 7.258 7.258 0 00-.82-3.385 8.82 8.82 0 00-2.257-2.768c-.956-.788-2.076-1.407-3.359-1.858-1.283-.451-2.652-.677-4.108-.677h-7.037c-.491 0-.948-.073-1.373-.222a3.583 3.583 0 01-1.116-.616 2.856 2.856 0 01-.748-.93 2.5 2.5 0 01-.27-1.14c0-.405.09-.781.27-1.132.18-.35.429-.657.748-.92a3.6 3.6 0 011.116-.616 4.138 4.138 0 011.373-.222l27.092-.057V0H11.545z" fill="#fff"/></svg><svg fill="none" viewBox="0 0 102 30" id="logo-siba-footer" xmlns="http://www.w3.org/2000/svg"><path d="M37.62 11.508h-6.096V5.709h6.096v5.799z" fill="#FF671F"/><path d="M31.527 29.024h6.09V11.508h-6.084M67.835 17.02a7.678 7.678 0 00-1.02-1.445l-.948-1.034c-.02-.02-.02-.053 0-.066l.921-1.007c.398-.43.742-.908 1.02-1.43a7.96 7.96 0 00.663-1.637 6.33 6.33 0 00.233-1.656 8.036 8.036 0 00-.723-3.366 8.977 8.977 0 00-1.96-2.756A9.33 9.33 0 0063.117.755C62.02.297 60.834.072 59.575.072H41.712v28.932h17.862c1.259 0 2.444-.225 3.544-.683a9.33 9.33 0 002.902-1.868 8.977 8.977 0 001.961-2.756 8.036 8.036 0 00.723-3.366c0-.542-.073-1.093-.226-1.669a7.422 7.422 0 00-.643-1.643zm-5.46 4.438c-.151.351-.37.655-.642.921a3.254 3.254 0 01-.967.616 3.23 3.23 0 01-1.192.219H47.8v-5.77h11.773c.424 0 .821.072 1.192.218.365.152.689.357.967.616.272.265.49.57.643.92.16.352.232.73.232 1.133 0 .398-.073.776-.232 1.127zm0-11.574c-.151.357-.37.669-.642.933a3.117 3.117 0 01-.967.61 3.11 3.11 0 01-1.192.225H47.8v-5.79h11.773c.424 0 .821.073 1.192.219.365.152.689.357.967.615.272.265.49.57.643.921.16.352.232.723.232 1.127s-.073.789-.232 1.14zM99.494 25.387h-.006L89.795 2.921 88.59.033h-6.916l-.371.815-.014.02-.252.542-1.106 2.412-10.322 22.85-.16.345-.913 1.994 6.698.006h.092l.742-1.947.02-.053 1.484-3.75h14.383l1.014 2.497.298.756.98 2.458 6.706.04h.126l-1.584-3.63zM84.6 5.87h.582l4.552 11.588h-9.838L84.6 5.869z" fill="#fff"/><path d="M10.545 0C9.09 0 7.725.23 6.45.687c-1.275.458-2.39 1.08-3.347 1.87A8.991 8.991 0 00.835 5.314 7.092 7.092 0 000 8.688a7.17 7.17 0 00.834 3.384 8.981 8.981 0 002.268 2.768c.956.788 2.072 1.412 3.346 1.868 1.276.458 2.64.687 4.095.687h7.038c.49 0 .948.075 1.374.222.424.15.796.354 1.115.617.32.262.568.57.748.92.18.35.27.726.27 1.13 0 .405-.09.781-.27 1.132-.18.35-.429.656-.748.918-.319.264-.69.469-1.115.617a4.147 4.147 0 01-1.374.222H1.963v5.8h15.62c1.454 0 2.823-.23 4.107-.688 1.283-.457 2.403-1.08 3.36-1.87a8.845 8.845 0 002.255-2.757 7.194 7.194 0 00.821-3.374 7.258 7.258 0 00-.82-3.385 8.82 8.82 0 00-2.257-2.768c-.956-.788-2.076-1.407-3.359-1.858-1.283-.451-2.652-.677-4.108-.677h-7.037c-.491 0-.948-.073-1.373-.222a3.583 3.583 0 01-1.116-.616 2.856 2.856 0 01-.748-.93 2.5 2.5 0 01-.27-1.14c0-.405.09-.781.27-1.132.18-.35.429-.657.748-.92a3.6 3.6 0 011.116-.616 4.138 4.138 0 011.373-.222l27.092-.057V0H10.545z" fill="#fff"/></svg><svg fill="none" viewBox="0 0 104 48" id="logo-siba-header" xmlns="http://www.w3.org/2000/svg"><path d="M3.504 42.192h-1.44V45h-.852v-6.312h.852v2.772h1.452l2.22-2.772h.924l-2.484 3.06L6.84 45H5.832l-2.328-2.808zm6.736-3.552c.823 0 1.455.208 1.896.624.44.408.66 1.016.66 1.824V45h-.816v-.984a1.947 1.947 0 01-.853.768c-.368.184-.808.276-1.32.276-.704 0-1.264-.168-1.68-.504-.416-.336-.624-.78-.624-1.332 0-.536.192-.968.576-1.296.392-.328 1.012-.492 1.86-.492h2.005v-.384c0-.544-.153-.956-.457-1.236-.303-.288-.748-.432-1.332-.432-.4 0-.784.068-1.152.204a2.822 2.822 0 00-.948.54l-.384-.636c.32-.272.704-.48 1.152-.624.448-.152.92-.228 1.416-.228zm-.3 5.748c.48 0 .892-.108 1.236-.324.344-.224.6-.544.768-.96v-1.032h-1.98c-1.08 0-1.62.376-1.62 1.128 0 .368.14.66.42.876.28.208.671.312 1.175.312zm9.144-2.652c.856.2 1.284.716 1.284 1.548 0 .552-.204.976-.612 1.272-.408.296-1.016.444-1.824.444h-2.868v-6.312h2.784c.72 0 1.284.14 1.692.42.408.28.612.68.612 1.2 0 .344-.096.64-.288.888-.184.24-.444.42-.78.54zm-3.192-.24h1.896c.488 0 .86-.092 1.116-.276.264-.184.396-.452.396-.804 0-.352-.132-.616-.396-.792-.256-.176-.628-.264-1.116-.264h-1.896v2.136zm2.004 2.832c.544 0 .952-.088 1.224-.264.272-.176.408-.452.408-.828 0-.376-.124-.652-.372-.828-.248-.184-.64-.276-1.176-.276h-2.088v2.196h2.004zm6.64-5.688c.824 0 1.456.208 1.896.624.44.408.66 1.016.66 1.824V45h-.816v-.984a1.947 1.947 0 01-.852.768c-.368.184-.808.276-1.32.276-.704 0-1.264-.168-1.68-.504-.416-.336-.624-.78-.624-1.332 0-.536.192-.968.576-1.296.392-.328 1.012-.492 1.86-.492h2.004v-.384c0-.544-.152-.956-.456-1.236-.304-.288-.748-.432-1.332-.432-.4 0-.784.068-1.152.204a2.822 2.822 0 00-.948.54l-.384-.636c.32-.272.704-.48 1.152-.624.448-.152.92-.228 1.416-.228zm-.3 5.748c.48 0 .892-.108 1.236-.324.344-.224.6-.544.768-.96v-1.032h-1.98c-1.08 0-1.62.376-1.62 1.128 0 .368.14.66.42.876.28.208.672.312 1.176.312zm14.421-.132v2.268h-.804V45h-5.652v1.524h-.804v-2.268h.36c.424-.024.712-.336.864-.936.152-.6.256-1.44.312-2.52l.084-2.112h4.656v5.568h.984zm-4.944-3.408c-.04.896-.116 1.636-.228 2.22-.112.576-.312.972-.6 1.188h3.936v-4.812h-3.036l-.072 1.404zm11.764-2.16V45h-.851v-5.556h-3.024l-.084 1.56c-.065 1.312-.217 2.32-.456 3.024-.24.704-.668 1.056-1.284 1.056-.169 0-.372-.032-.612-.096l.06-.732c.144.032.243.048.3.048.327 0 .575-.152.743-.456.169-.304.28-.68.337-1.128a26.6 26.6 0 00.143-1.776l.108-2.256h4.62zm7.27 0V45h-.78v-2.088H49.748L48.284 45h-.924l1.572-2.208c-.487-.136-.863-.368-1.127-.696-.265-.328-.397-.744-.397-1.248 0-.704.24-1.24.72-1.608.48-.368 1.136-.552 1.968-.552h2.653zm-4.475 2.184c0 .936.596 1.404 1.788 1.404h1.907v-2.832H50.12c-1.232 0-1.848.476-1.848 1.428zm13.105-2.028c.584 0 1.104.132 1.56.396.465.256.825.62 1.08 1.092.257.464.385.996.385 1.596 0 .616-.136 1.164-.409 1.644-.264.472-.636.84-1.116 1.104-.48.264-1.032.396-1.656.396-1.047 0-1.86-.368-2.435-1.104-.577-.736-.864-1.752-.864-3.048 0-1.352.256-2.388.768-3.108.52-.72 1.328-1.208 2.424-1.464l2.832-.648.144.78-2.665.612c-.903.2-1.567.556-1.991 1.068-.424.504-.656 1.252-.697 2.244a2.825 2.825 0 011.069-1.14c.456-.28.98-.42 1.572-.42zm-.132 5.52c.44 0 .833-.1 1.177-.3.352-.208.623-.496.816-.864.2-.368.3-.784.3-1.248 0-.464-.096-.872-.288-1.224a2.004 2.004 0 00-.816-.816c-.344-.2-.74-.3-1.188-.3-.449 0-.849.1-1.2.3a2.105 2.105 0 00-.816.816c-.192.352-.288.76-.288 1.224 0 .464.096.88.288 1.248.2.368.476.656.828.864.352.2.748.3 1.188.3zm4.983-5.676h.852V45h-.852v-6.312zm.432-1.38a.603.603 0 01-.444-.18.59.59 0 01-.18-.432c0-.16.06-.3.18-.42s.268-.18.444-.18.324.06.444.18c.12.112.18.248.18.408 0 .176-.06.324-.18.444a.603.603 0 01-.444.18zm5.792 4.404c.448.104.792.284 1.032.54.248.256.372.568.372.936 0 .368-.128.696-.384.984-.248.288-.588.512-1.02.672a4.277 4.277 0 01-1.428.228c-.456 0-.904-.064-1.344-.192a3.56 3.56 0 01-1.152-.588l.288-.636c.288.216.624.384 1.008.504s.772.18 1.164.18c.584 0 1.06-.108 1.428-.324.376-.224.564-.524.564-.9 0-.336-.152-.596-.456-.78-.304-.192-.72-.288-1.248-.288h-1.08v-.624h1.032c.472 0 .852-.088 1.14-.264.288-.184.432-.428.432-.732 0-.336-.164-.6-.492-.792-.32-.192-.74-.288-1.26-.288-.68 0-1.352.172-2.016.516l-.24-.66a5 5 0 012.34-.588c.48 0 .912.072 1.296.216.392.136.696.332.912.588.224.256.336.552.336.888 0 .32-.112.604-.336.852-.216.248-.512.432-.888.552zm3.338-3.024h.852v2.796h3.972v-2.796h.852V45h-.852v-2.784h-3.972V45h-.852v-6.312zm13.618 3.42h-5.28c.048.656.3 1.188.756 1.596.456.4 1.032.6 1.728.6.392 0 .752-.068 1.08-.204.328-.144.612-.352.852-.624l.48.552c-.28.336-.632.592-1.056.768a3.507 3.507 0 01-1.38.264c-.648 0-1.224-.136-1.728-.408a3.038 3.038 0 01-1.164-1.152 3.267 3.267 0 01-.42-1.656c0-.616.132-1.168.396-1.656.272-.488.64-.868 1.104-1.14.472-.272 1-.408 1.584-.408a3.05 3.05 0 011.572.408c.464.272.828.652 1.092 1.14.264.48.396 1.032.396 1.656l-.012.264zm-3.048-2.736c-.608 0-1.12.196-1.536.588-.408.384-.64.888-.696 1.512h4.476c-.056-.624-.292-1.128-.708-1.512-.408-.392-.92-.588-1.536-.588zm7.586 5.688a3.436 3.436 0 01-1.68-.408 2.976 2.976 0 01-1.152-1.14 3.333 3.333 0 01-.42-1.668c0-.616.14-1.168.42-1.656.28-.488.664-.868 1.152-1.14a3.436 3.436 0 011.68-.408c.544 0 1.028.108 1.452.324.432.208.772.516 1.02.924l-.636.432a1.945 1.945 0 00-.792-.696c-.32-.16-.668-.24-1.044-.24-.456 0-.868.104-1.236.312-.36.2-.644.488-.852.864-.2.376-.3.804-.3 1.284 0 .488.1.92.3 1.296.208.368.492.656.852.864.368.2.78.3 1.236.3.376 0 .724-.076 1.044-.228.32-.152.584-.384.792-.696l.636.432c-.248.408-.588.72-1.02.936a3.304 3.304 0 01-1.452.312zm9.392-6.372l-3.156 7.068c-.256.592-.552 1.012-.888 1.26-.336.248-.74.372-1.212.372-.304 0-.588-.048-.852-.144a1.846 1.846 0 01-.684-.432l.396-.636c.32.32.704.48 1.152.48.288 0 .532-.08.732-.24.208-.16.4-.432.576-.816l.276-.612-2.82-6.3h.888l2.376 5.364 2.376-5.364h.84z" fill="#000"/><path d="M38.62 11.508h-6.096V5.709h6.096v5.799z" fill="#FF671F"/><path d="M32.527 29.023h6.09V11.508h-6.084M68.835 17.019a7.689 7.689 0 00-1.02-1.444l-.947-1.034c-.02-.02-.02-.053 0-.067l.92-1.006a6.83 6.83 0 001.02-1.431 7.95 7.95 0 00.663-1.636 6.33 6.33 0 00.233-1.657 8.036 8.036 0 00-.722-3.365 8.978 8.978 0 00-1.962-2.756A9.33 9.33 0 0064.12.754c-1.1-.457-2.286-.682-3.545-.682H42.712v28.932h17.862c1.259 0 2.444-.226 3.545-.683a9.33 9.33 0 002.901-1.868 8.978 8.978 0 001.962-2.756 8.037 8.037 0 00.722-3.366c0-.543-.073-1.093-.225-1.669a7.425 7.425 0 00-.644-1.643zm-5.46 4.439c-.151.35-.37.655-.642.92a3.257 3.257 0 01-.967.617 3.232 3.232 0 01-1.192.218H48.8v-5.77h11.773c.424 0 .821.073 1.192.219.365.152.689.357.967.616.272.264.49.57.643.92.16.352.232.729.232 1.133 0 .397-.073.776-.232 1.127zm0-11.575c-.151.358-.37.67-.642.934a3.117 3.117 0 01-.967.61 3.11 3.11 0 01-1.192.225H48.8v-5.79h11.773c.424 0 .821.072 1.192.218.365.152.689.358.967.616.272.265.49.57.643.921.16.351.232.722.232 1.127 0 .404-.073.788-.232 1.14zM100.494 25.387h-.006L90.795 2.92 89.59.032h-6.916l-.371.815-.014.02-.252.543-1.106 2.411-10.322 22.85-.16.346-.913 1.994 6.698.006h.092l.742-1.947.02-.053 1.484-3.75h14.383l1.014 2.497.298.756.98 2.458 6.706.04h.126l-1.584-3.631zM85.601 5.869h.582l4.552 11.587h-9.838L85.6 5.87z" fill="#000"/><path d="M11.545 0C10.09 0 8.725.23 7.45.687c-1.275.458-2.39 1.08-3.347 1.87a8.991 8.991 0 00-2.268 2.758A7.092 7.092 0 001 8.688a7.17 7.17 0 00.834 3.384 8.981 8.981 0 002.268 2.768c.956.788 2.072 1.412 3.346 1.868 1.276.458 2.64.687 4.095.687h7.038c.49 0 .948.075 1.374.222.424.15.796.354 1.115.617.32.262.568.57.748.92.18.35.27.726.27 1.13 0 .405-.09.781-.27 1.132-.18.35-.429.656-.748.918-.319.264-.69.469-1.115.617a4.147 4.147 0 01-1.374.222H2.963v5.8h15.62c1.454 0 2.823-.23 4.107-.688 1.283-.457 2.403-1.08 3.36-1.87a8.845 8.845 0 002.255-2.757 7.194 7.194 0 00.821-3.374 7.258 7.258 0 00-.82-3.385 8.82 8.82 0 00-2.257-2.768c-.956-.788-2.076-1.407-3.359-1.858-1.283-.451-2.652-.677-4.108-.677h-7.037c-.491 0-.948-.073-1.373-.222a3.583 3.583 0 01-1.116-.616 2.856 2.856 0 01-.748-.93 2.5 2.5 0 01-.27-1.14c0-.405.09-.781.27-1.132.18-.35.429-.657.748-.92a3.6 3.6 0 011.116-.616 4.138 4.138 0 011.373-.222l27.092-.057V0H11.545z" fill="#000"/></svg><svg fill="none" viewBox="0 0 94 21" id="logo-siba-header-mob" xmlns="http://www.w3.org/2000/svg"><path d="M25.625 7.839h-4.152v-3.95h4.152v3.95z" fill="#FF671F"/><path d="M72.996 14.277c.322.112.504.36.504.676 0 .532-.403.892-1.004.892H70.95c-.049 0-.075-.027-.075-.076v-2.776c0-.049.027-.075.075-.075h1.434c.548 0 .924.35.924.8a.563.563 0 01-.312.521v.037zm-1.504-.22h.897c.171 0 .3-.114.3-.28 0-.172-.112-.279-.3-.279h-.897v.558zm0 1.202h.988c.252 0 .397-.123.397-.311 0-.21-.134-.312-.397-.312h-.988v.623zM76.674 13.567c.021.037.016.064-.01.085l-.34.258c-.037.038-.08.016-.101-.01-.22-.302-.462-.436-.828-.436-.537 0-.891.376-.891.908 0 .531.36.923.891.923.365 0 .624-.129.844-.451.027-.027.053-.027.086 0l.338.268c.027.027.032.06.01.086-.273.451-.74.688-1.277.688-.86 0-1.514-.65-1.514-1.515 0-.864.655-1.498 1.514-1.498.504 0 1.02.253 1.278.694zM79.456 12.916c.048 0 .075.027.075.076v.43c0 .047-.027.074-.075.074h-1.628v.548h1.429c.048 0 .075.027.075.075v.43c0 .049-.027.075-.075.075h-1.429v.634h1.67c.049 0 .075.027.075.075v.435c0 .049-.027.075-.075.075H77.28c-.048 0-.075-.027-.075-.075v-2.776c0-.043.038-.075.075-.075h2.176zM84.696 12.916c.049 0 .075.027.075.076v2.26h.247c.049 0 .076.038.076.075v1.031c0 .049-.027.075-.076.075h-.435c-.048 0-.075-.026-.075-.075l-.027-.515h-1.965l-.032.51c0 .054-.027.08-.076.08h-.43c-.047 0-.074-.026-.074-.075v-1.03c0-.049.027-.076.075-.076h.171c.113 0 .172-.064.188-.188l.274-2.072c.005-.049.038-.076.075-.076h2.01zm-1.52.592l-.21 1.6a.326.326 0 01-.042.145h1.224v-1.745h-.972zM88.014 15.843c-.048 0-.075-.027-.075-.075v-2.266h-.945l-.22 1.67c-.06.43-.317.704-.752.704-.301 0-.49-.091-.64-.258-.027-.032-.021-.064.006-.102l.225-.306c.027-.032.06-.032.097-.005a.32.32 0 00.241.085c.124 0 .194-.074.21-.187l.317-2.122c.005-.042.032-.064.07-.064h1.938c.049 0 .075.027.075.075v2.776c0 .049-.027.075-.075.075h-.472zM89.728 14.888c-.328-.188-.548-.473-.548-.902 0-.602.499-1.069 1.144-1.069h1.326c.049 0 .075.027.075.075v2.776c0 .049-.027.075-.075.075h-.472c-.048 0-.075-.027-.075-.075v-.709h-.806l-.44.726c-.022.037-.065.058-.124.058h-.51c-.064 0-.075-.054-.049-.096l.554-.86zm.58-1.38c-.328 0-.51.204-.51.478 0 .273.187.488.51.488h.794v-.966h-.795zM72.996 18.201c.322.113.504.36.504.677 0 .532-.403.891-1.004.891H70.95c-.049 0-.075-.027-.075-.075v-2.776c0-.049.027-.075.075-.075h1.434c.548 0 .924.35.924.8a.563.563 0 01-.312.521v.037zm-1.504-.22h.897c.171 0 .3-.112.3-.279 0-.171-.112-.279-.3-.279h-.897v.559zm0 1.203h.988c.252 0 .397-.123.397-.311 0-.21-.134-.312-.397-.312h-.988v.623zM76.292 16.843c.049 0 .075.027.075.075v.43c0 .048-.027.075-.075.075h-1.627v.548h1.428c.049 0 .076.027.076.075v.43c0 .048-.027.075-.075.075h-1.43v.633h1.67c.05 0 .076.027.076.075v.436c0 .048-.027.075-.075.075h-2.218c-.049 0-.075-.027-.075-.075v-2.777c0-.043.038-.075.075-.075h2.175zM77.555 16.843c.048 0 .075.027.075.075v1.037h1.332v-1.037c0-.049.027-.075.075-.075h.472c.049 0 .075.027.075.075v2.776c0 .049-.027.075-.075.075h-.472c-.048 0-.075-.027-.075-.075v-1.15H77.63v1.15c0 .049-.027.075-.075.075h-.473c-.048 0-.075-.027-.075-.075v-2.776c0-.049.027-.075.075-.075h.473zM82.866 16.843c.048 0 .075.027.075.075v2.26h.247c.048 0 .075.038.075.075v1.032c0 .048-.027.075-.075.075h-.435c-.048 0-.075-.027-.075-.075l-.027-.516h-1.965l-.033.51c0 .054-.027.08-.075.08h-.43c-.048 0-.075-.026-.075-.074v-1.032c0-.048.027-.075.075-.075h.172c.113 0 .172-.064.188-.187l.274-2.073c.005-.049.038-.075.075-.075h2.009zm-1.52.59l-.21 1.6a.326.326 0 01-.043.146h1.225v-1.745h-.972zM84.3 16.843c.047 0 .074.027.074.075v2.776c0 .049-.027.075-.075.075h-.472c-.049 0-.075-.027-.075-.075v-2.776c0-.049.027-.075.075-.075h.472zM85.572 16.843c.048 0 .075.027.075.075v1.037h1.332v-1.037c0-.049.027-.075.075-.075h.472c.049 0 .075.027.075.075v2.776c0 .049-.027.075-.075.075h-.472c-.048 0-.075-.027-.075-.075v-1.15h-1.332v1.15c0 .049-.027.075-.075.075h-.473c-.048 0-.075-.027-.075-.075v-2.776c0-.049.027-.075.075-.075h.473zM88.327 19.77c-.049 0-.075-.027-.075-.075v-2.777c0-.048.038-.075.075-.075h2.105c.043 0 .075.038.075.075v.441c0 .049-.027.075-.075.075h-1.557v2.26c0 .05-.027.076-.075.076h-.473zM91.533 16.843c.032 0 .053.01.064.032l.897 1.53h.043l.763-1.508c.016-.038.048-.054.09-.054h.549c.049 0 .075.048.053.086l-1.578 2.792c-.017.032-.049.049-.092.049h-.537c-.059 0-.064-.038-.043-.08l.424-.726-1.267-2.052c-.021-.037-.005-.07.033-.07h.601zM21.475 19.77h4.148V7.839H21.48M46.206 11.593a5.23 5.23 0 00-.695-.984l-.645-.704c-.013-.014-.013-.036 0-.046l.628-.685c.27-.293.505-.618.694-.975.194-.356.343-.73.452-1.114.103-.384.158-.758.158-1.129 0-.812-.167-1.579-.492-2.292a6.116 6.116 0 00-1.336-1.877A6.355 6.355 0 0042.994.514a6.234 6.234 0 00-2.415-.465H28.413v19.707h12.166c.858 0 1.665-.153 2.415-.465a6.353 6.353 0 001.976-1.272 6.115 6.115 0 001.336-1.878c.325-.713.492-1.48.492-2.292 0-.37-.05-.745-.153-1.137a5.057 5.057 0 00-.439-1.12zm-3.718 3.023c-.104.24-.253.447-.438.628a2.22 2.22 0 01-.659.42c-.252.098-.523.148-.812.148h-8.02v-3.93h8.02c.29 0 .56.05.812.149.249.103.47.243.659.419.185.18.334.388.438.627.108.24.158.497.158.772 0 .27-.05.528-.158.767zm0-7.884a1.95 1.95 0 01-.438.636c-.19.176-.41.316-.659.415a2.118 2.118 0 01-.812.154h-8.02V3.993h8.02c.29 0 .56.05.812.149.249.103.47.243.659.42.185.18.334.387.438.627.108.239.158.492.158.767s-.05.537-.158.776zM67.771 17.293h-.004L61.165 1.99 60.343.022h-4.71l-.254.555-.009.014-.171.37-.754 1.642-7.03 15.565-.11.235-.622 1.358 4.562.004h.064l.505-1.326.013-.036 1.011-2.555h9.797l.691 1.701.203.515.668 1.674 4.567.027h.086l-1.079-2.473zM57.627 3.998h.396l3.1 7.893h-6.7l3.204-7.893z" fill="#000"/><path d="M7.183 0c-.991 0-1.92.156-2.79.468a7.567 7.567 0 00-2.28 1.273A6.125 6.125 0 00.57 3.621 4.83 4.83 0 000 5.917c0 .816.19 1.585.568 2.305.378.72.894 1.348 1.545 1.885a7.554 7.554 0 002.28 1.273 8.19 8.19 0 002.788.468h4.794c.335 0 .646.05.936.151.29.102.543.241.76.42.217.179.387.388.51.627.122.238.183.495.183.77s-.062.532-.184.77a1.967 1.967 0 01-.51.626c-.216.18-.47.32-.759.42-.29.101-.601.152-.936.152H1.337v3.95h10.64c.99 0 1.923-.156 2.797-.468a7.53 7.53 0 002.289-1.274 6.025 6.025 0 001.536-1.878 4.9 4.9 0 00.56-2.298c0-.817-.187-1.585-.56-2.306a6.007 6.007 0 00-1.537-1.885 7.425 7.425 0 00-2.288-1.266 8.364 8.364 0 00-2.797-.461H7.183c-.335 0-.646-.05-.936-.151a2.441 2.441 0 01-.76-.42 1.945 1.945 0 01-.509-.633 1.702 1.702 0 01-.184-.777c0-.276.061-.532.184-.771.122-.239.292-.448.51-.626.216-.18.47-.319.76-.42.289-.101.6-.151.935-.151l18.454-.04V0H7.183z" fill="#000"/></svg><svg fill="none" viewBox="0 0 40 41" id="plane" xmlns="http://www.w3.org/2000/svg"><path d="M34.017 24.442a2.36 2.36 0 00-.833-1.597l-5.06-4.25a4.945 4.945 0 00.33-5.505l.79-.94 1.082.909a1.415 1.415 0 00.173 1.992l2.526 2.121a2.36 2.36 0 003.32-.288.471.471 0 00-.057-.664l-4.692-3.94a.471.471 0 00-.664.057l-1.28-1.075a1.878 1.878 0 00-2.494-2.095L25.88 8.093a.471.471 0 00-.058-.664l-4.691-3.94a.471.471 0 00-.664.058 2.36 2.36 0 00.289 3.32l2.526 2.121c.598.502 1.49.424 1.992-.173l1.082.91-.79.94a4.946 4.946 0 00-5.365 1.274l-5.06-4.25a2.36 2.36 0 00-3.32.29 4.236 4.236 0 00.512 5.968l.008.007 4.333 3.64-4.45 7.346a2.829 2.829 0 00-3.91.402.944.944 0 00.116 1.328l1.826 1.534c-.55.989-.309 2.23.57 2.94.445.377 1.011.58 1.594.575a2.23 2.23 0 001.402-.52l1.825 1.534a.944.944 0 001.328-.116 2.815 2.815 0 00-.278-3.92l6.468-5.652 4.332 3.64a4.246 4.246 0 005.976-.52c.403-.48.598-1.1.544-1.723zm-2.666-11.138l3.908 3.282a1.416 1.416 0 01-1.627-.135l-2.526-2.122a.472.472 0 01-.058-.664l.303-.361zm-6.799-5.095a.472.472 0 01-.664.058l-2.526-2.122a1.416 1.416 0 01-.414-1.58l3.907 3.283-.303.36zm-11.605 5.023a3.294 3.294 0 01-.41-4.64l.006-.008a1.415 1.415 0 011.992-.173l.36.303-1.212 1.444a.471.471 0 00.722.606l1.212-1.444.722.607-1.818 2.165a.471.471 0 00.721.606l1.819-2.165.722.606-1.819 2.165a.471.471 0 10.722.607l1.818-2.166 1.135.953-2.472 4.078-4.22-3.544zm14.131-2.901a.879.879 0 01.251-.206.937.937 0 011.346 1.154.847.847 0 01-.153.264l-.64.76-.017-.016a4.899 4.899 0 00-.49-.477l-.362-.303a4.884 4.884 0 00-.554-.401l-.02-.014.64-.761zM9.036 25.949c.67-.796 1.859-.9 2.656-.231l.04.034-.988 1.631-1.708-1.434zm7.227 6.05a.937.937 0 00-.01.012l-1.707-1.435 1.436-1.255.04.034c.797.664.905 1.848.241 2.645zM26.7 18.706L13.51 30.229l-.002.003-.202.177a1.306 1.306 0 01-.899.367 1.492 1.492 0 01-.976-.353c-.57-.45-.699-1.264-.296-1.869l.128-.21.001-.002 1.483-2.447.002-.005L20.37 13.31l1.744 1.465-3.334 3.97a1.885 1.885 0 002.887 2.425L25 17.2l1.744 1.465-.044.039zm-2.422-2.11l-3.334 3.97a.942.942 0 11-1.443-1.213l3.334-3.97 1.443 1.213zm-.837-1.934a.943.943 0 011.444 1.212l-1.444-1.212zm2.165 1.819a1.885 1.885 0 00-2.887-2.425l-1.799-1.511a4.003 4.003 0 014.59-.882c.323.147.625.338.897.567l.361.303c.273.23.514.495.716.789a4.002 4.002 0 01-.079 4.67l-1.799-1.511zm7.145 9.078a3.303 3.303 0 01-4.647.405l-4.22-3.544 3.59-3.14 1.135.953-1.819 2.166a.471.471 0 00.722.606l1.818-2.165.722.606-1.819 2.165a.471.471 0 10.722.606l1.819-2.165.722.606-1.213 1.444a.471.471 0 10.722.606l1.212-1.444.361.304c.598.5.677 1.39.177 1.988l-.004.003z" fill="#000"/><path d="M15.07 26.093a.471.471 0 00-.664.058l-2.425 2.887a.471.471 0 10.722.606l2.425-2.887a.471.471 0 00-.058-.664z" fill="#000"/></svg><svg fill="none" viewBox="0 0 13 14" id="search" xmlns="http://www.w3.org/2000/svg"><path d="M12 12.5L8.873 9.045a5.252 5.252 0 001.608-3.786C10.48 2.36 8.13 0 5.24 0 2.35 0 0 2.36 0 5.26s2.35 5.259 5.24 5.259c1.078 0 2.081-.329 2.915-.891l3.182 3.512a.458.458 0 00.65.013A.463.463 0 0012 12.5zM.92 5.26C.92 2.868 2.858.922 5.24.922c2.382 0 4.32 1.946 4.32 4.336 0 2.391-1.938 4.336-4.32 4.336C2.858 9.595.92 7.65.92 5.26z" fill="#000"/></svg><svg fill="none" viewBox="0 0 31 30" id="service" xmlns="http://www.w3.org/2000/svg"><path d="M25.034 25.202L23.88 21.77a3.479 3.479 0 00-2.685-2.31l-3.33-.6v-.256a5.002 5.002 0 001.486-1.308h1.006a1.49 1.49 0 001.495-1.483v-5.93c0-3.542-2.906-6.424-6.478-6.424-3.571 0-6.477 2.882-6.477 6.424v3.46c0 .952.683 1.75 1.59 1.935a4.953 4.953 0 002.396 3.326v.256l-3.33.6a3.478 3.478 0 00-2.685 2.31l-.199.593-1.697-1.683a.492.492 0 010-.7l1.968-1.95-3.694-3.664-2.224 2.206A3.422 3.422 0 000 19.018c0 .924.363 1.792 1.022 2.445l6.734 6.679a3.48 3.48 0 002.466 1.013c.932 0 1.807-.36 2.45-.998L15.1 25.95l-.757-.749h10.692zm-4.179-9.389a.497.497 0 01-.498.494h-.42c.145-.326.255-.67.326-1.03.213-.043.41-.127.592-.233v.77zm-.498-1.62v-1.702a.984.984 0 01.498.851c0 .364-.202.68-.498.851zm-9.965 0a.984.984 0 01-.498-.85c0-.365.201-.68.498-.852v1.702zm0-3.322v.565a1.98 1.98 0 00-.498.204V9.883c0-2.997 2.458-5.436 5.48-5.436 3.022 0 5.481 2.439 5.481 5.436v1.757c-.154-.09-.32-.159-.498-.204v-.565h-.498a5.505 5.505 0 01-3.901-1.602l-.584-.579-.583.579a5.505 5.505 0 01-3.9 1.602h-.5zm.996 3.46v-2.49a6.485 6.485 0 003.986-1.756 6.482 6.482 0 003.986 1.756v2.49c0 .72-.198 1.394-.539 1.976h-3.447v.989h2.628a3.983 3.983 0 01-2.628.988c-2.197 0-3.986-1.774-3.986-3.953zm5.481 4.713v.024l-1.495 1.482-1.494-1.482v-.024a5.015 5.015 0 002.99 0zm-9.056 3.038a2.486 2.486 0 011.918-1.65l3.482-.628 2.161 2.144 2.16-2.143 3.483.628c.895.162 1.63.793 1.918 1.65l.717 2.13H13.346l-1.94-1.924-2.157 1.935a.512.512 0 01-.705 0l-1.088-1.08.357-1.062zm-4.567-6.319L5.53 18.03l-.542.537L2.704 16.3l.542-.537zm8.736 11.681a2.489 2.489 0 01-1.761.723 2.488 2.488 0 01-1.762-.724l-6.734-6.678a2.445 2.445 0 01-.729-1.747c0-.66.26-1.28.73-1.747l.273-.272 2.285 2.266-.018.018a1.476 1.476 0 000 2.097l3.573 3.543c.283.28.658.435 1.058.435s.774-.154 1.038-.417l.038-.033 2.295 2.276-.286.26zm1.022-.929l-2.29-2.271.657-.59 2.287 2.267-.654.594z" fill="#000"/><path d="M15.374 0C8.864 0 3.257 4.466 1.8 10.696L.854 9.135 0 9.643l1.751 2.895L4.67 10.8l-.513-.848-1.35.804C4.219 5.057 9.386.988 15.374.988c1.31 0 2.6.193 3.839.573l.295-.943A14.048 14.048 0 0015.374 0zM30.578 9.46L27.66 7.721l-1.751 2.895.854.508.872-1.441a12.7 12.7 0 01.694 4.152c0 2.94-1.027 5.812-2.89 8.09l.774.623a13.797 13.797 0 003.112-8.713c0-1.511-.245-2.987-.724-4.4l1.464.87.513-.847z" fill="#000"/></svg><svg fill="none" viewBox="0 0 29 23" id="twitter" xmlns="http://www.w3.org/2000/svg"><path d="M29 2.723a12.633 12.633 0 01-3.426.916A5.798 5.798 0 0028.19.432a12.059 12.059 0 01-3.77 1.404A6.026 6.026 0 0020.077 0c-3.291 0-5.941 2.608-5.941 5.805 0 .46.04.902.137 1.323A16.967 16.967 0 012.02 1.058a5.737 5.737 0 00-.814 2.933c0 2.01 1.06 3.792 2.641 4.823A5.982 5.982 0 011.16 8.1v.063c0 2.82 2.06 5.163 4.763 5.703a6.073 6.073 0 01-1.559.19c-.38 0-.764-.02-1.125-.098.77 2.298 2.956 3.987 5.555 4.042a12.133 12.133 0 01-7.371 2.475c-.488 0-.955-.02-1.423-.08C2.634 22.055 5.755 23 9.12 23c10.94 0 16.922-8.846 16.922-16.514 0-.257-.01-.504-.022-.75A11.71 11.71 0 0029 2.723z" fill="#fff"/></svg></svg>